<?xml version="1.0" standalone="no"?>
<!DOCTYPE svg PUBLIC "-//W3C//DTD SVG 20010904//EN"
 "http://www.w3.org/TR/2001/REC-SVG-20010904/DTD/svg10.dtd">
<svg version="1.0" xmlns="http://www.w3.org/2000/svg"
 width="1280.000000pt" height="776.000000pt" viewBox="0 0 1280.000000 776.000000"
 preserveAspectRatio="xMidYMid meet">
<metadata>
Created by potrace 1.15, written by Peter Selinger 2001-2017
</metadata>
<g transform="translate(0.000000,776.000000) scale(0.100000,-0.100000)"
fill="#607d8b" stroke="none">
<path d="M9623 7753 c59 -2 155 -2 215 0 59 1 10 3 -108 3 -118 0 -167 -2
-107 -3z"/>
<path d="M9453 7743 c9 -2 25 -2 35 0 9 3 1 5 -18 5 -19 0 -27 -2 -17 -5z"/>
<path d="M9997 7743 c18 -2 50 -2 70 0 21 2 7 4 -32 4 -38 0 -55 -2 -38 -4z"/>
<path d="M9345 7726 c-23 -7 -50 -18 -60 -25 -20 -12 -20 -12 0 -5 11 4 49 15
85 25 36 10 54 18 40 18 -14 0 -43 -6 -65 -13z"/>
<path d="M10153 7733 c15 -2 37 -2 50 0 12 2 0 4 -28 4 -27 0 -38 -2 -22 -4z"/>
<path d="M10263 7723 c15 -2 37 -2 50 0 12 2 0 4 -28 4 -27 0 -38 -2 -22 -4z"/>
<path d="M9458 7713 c18 -2 45 -2 60 0 15 2 0 4 -33 4 -33 0 -45 -2 -27 -4z"/>
<path d="M9633 7713 c26 -2 67 -2 90 0 23 2 2 3 -48 3 -49 0 -68 -1 -42 -3z"/>
<path d="M10368 7713 c12 -2 32 -2 45 0 12 2 2 4 -23 4 -25 0 -35 -2 -22 -4z"/>
<path d="M9383 7703 c9 -2 23 -2 30 0 6 3 -1 5 -18 5 -16 0 -22 -2 -12 -5z"/>
<path d="M9813 7703 c15 -2 37 -2 50 0 12 2 0 4 -28 4 -27 0 -38 -2 -22 -4z"/>
<path d="M10458 7703 c12 -2 32 -2 45 0 12 2 2 4 -23 4 -25 0 -35 -2 -22 -4z"/>
<path d="M9338 7693 c7 -3 16 -2 19 1 4 3 -2 6 -13 5 -11 0 -14 -3 -6 -6z"/>
<path d="M9928 7693 c12 -2 30 -2 40 0 9 3 -1 5 -23 4 -22 0 -30 -2 -17 -4z"/>
<path d="M10541 7696 c2 -2 27 -6 54 -9 32 -4 43 -3 30 3 -19 8 -93 14 -84 6z"/>
<path d="M9208 7657 c-55 -42 -111 -123 -102 -150 4 -14 3 -17 -6 -12 -9 5
-10 1 -5 -15 4 -14 3 -20 -3 -16 -16 9 -24 -131 -12 -218 5 -44 12 -81 14 -83
2 -2 1 45 -1 104 -4 72 -1 128 8 168 7 33 12 68 11 78 -1 10 2 16 8 12 5 -3
16 7 24 23 14 27 70 82 112 110 17 11 17 12 -3 2 -34 -16 -40 -11 -13 10 14
11 22 20 18 20 -3 0 -26 -15 -50 -33z m-32 -57 c-25 -27 -46 -55 -46 -61 0 -7
-3 -9 -6 -6 -13 12 68 117 89 117 5 0 -11 -22 -37 -50z"/>
<path d="M9290 7680 c-8 -5 -10 -10 -5 -10 6 0 17 5 25 10 8 5 11 10 5 10 -5
0 -17 -5 -25 -10z"/>
<path d="M10018 7683 c12 -2 30 -2 40 0 9 3 -1 5 -23 4 -22 0 -30 -2 -17 -4z"/>
<path d="M9392 7666 c-122 -29 -192 -80 -236 -175 -19 -43 -21 -64 -22 -291
-1 -159 1 -212 6 -150 3 52 7 78 8 58 1 -27 7 -38 18 -38 14 0 15 10 8 83 -5
45 -9 127 -8 182 0 108 16 155 66 202 61 57 190 81 338 63 l65 -7 -100 -3
c-89 -3 -82 -4 69 -10 143 -6 171 -10 181 -24 7 -9 24 -16 36 -15 13 1 38 1
54 0 30 -3 30 -3 5 -11 -14 -4 -44 -8 -67 -9 -24 -1 -43 -5 -43 -9 0 -13 -94
-32 -153 -32 -40 0 -48 3 -37 11 11 8 8 9 -15 4 -16 -4 -56 -11 -89 -16 -75
-13 -122 -32 -135 -57 -16 -29 -14 -162 5 -345 9 -87 15 -160 12 -162 -2 -2
-890 -9 -1973 -15 -1084 -6 -2080 -12 -2215 -13 -135 -1 546 -3 1512 -5 1163
-1 1759 1 1763 8 4 6 168 10 461 10 l454 0 0 -24 0 -24 -897 -7 c-494 -4
-1836 -6 -2983 -4 -1147 2 -1840 2 -1540 -1 l545 -5 -478 -3 c-378 -1 -478 -5
-474 -14 3 -10 595 -13 2916 -13 2577 0 2913 -2 2921 -15 7 -10 10 -11 10 -2
0 9 131 12 620 12 603 0 797 -10 448 -23 -95 -4 -1073 -8 -2173 -9 -1100 -2
-1824 -5 -1610 -8 273 -3 364 -7 305 -12 -47 -5 -427 -9 -845 -9 -418 -1
-1066 -5 -1440 -8 -374 -3 816 -4 2645 -2 l3325 4 17 -37 c11 -27 13 -38 5
-41 -7 -2 -2210 -8 -4897 -14 -2687 -6 -4978 -14 -5092 -17 l-208 -6 0 56 c0
31 -4 56 -8 56 -13 0 -42 -57 -42 -84 l0 -25 -122 -4 -123 -3 123 -2 122 -2
-5 -1677 c-5 -1610 -8 -1870 -21 -1979 -4 -38 -3 -46 6 -34 9 12 10 4 6 -34
-3 -27 -7 -565 -8 -1195 l-3 -1146 -5 1070 c-3 589 -7 996 -8 905 -2 -91 -5
-286 -6 -435 -3 -262 -14 -379 -26 -275 -4 29 -7 4 -9 -70 -1 -63 -3 -126 -4
-140 0 -14 1 -194 3 -400 l4 -375 6 465 c4 316 9 473 17 490 9 19 12 -50 12
-310 1 -506 -10 -920 -24 -920 -8 0 -14 49 -20 163 -19 381 -21 394 -23 110
l-2 -273 -59 0 c-41 0 -60 -4 -64 -14 -4 -9 4 -17 21 -22 l27 -7 -30 -7 -30
-8 30 -1 c17 -1 41 -8 55 -16 33 -19 50 -18 26 0 -11 8 -16 15 -10 15 17 0 31
-15 31 -32 0 -15 -10 -18 -66 -18 l-66 -1 39 -14 c50 -17 74 -41 91 -91 l14
-39 1 66 c0 56 3 66 18 66 17 0 32 -14 32 -31 0 -6 -7 -1 -15 10 -17 23 -20
11 -3 -19 6 -12 15 -38 18 -57 7 -35 7 -35 18 -10 10 24 11 24 11 3 1 -16 6
-21 16 -17 11 5 15 22 15 65 l0 59 758 3 757 2 -757 3 -758 2 0 26 0 26 3332
-8 c1833 -5 4267 -9 5408 -9 1141 0 2001 -1 1910 -3 -91 -1 -464 -6 -830 -11
-622 -7 -574 -8 723 -9 l1387 -2 0 -35 0 -35 -1227 -3 -1228 -2 1228 -3 c810
-1 1227 -5 1227 -12 0 -6 -37 -11 -87 -12 l-88 -1 88 -10 c62 -7 87 -14 87
-24 0 -11 -125 -13 -767 -9 -423 2 -1162 6 -1643 8 -481 3 -1437 9 -2125 14
-1138 8 -1205 10 -745 15 278 3 -174 4 -1005 3 -830 -2 -2225 2 -3100 8 -969
6 -1617 7 -1660 1 -46 -6 405 -11 1325 -16 767 -4 2520 -14 3895 -23 1375 -9
2721 -17 2990 -18 270 -2 720 -5 1000 -7 281 -2 -385 -6 -1480 -9 l-1990 -5
2125 -5 c1169 -2 2051 -7 1960 -11 -159 -6 150 -3 1025 10 l410 6 5 160 c3 88
7 144 10 125 3 -19 6 845 8 1920 1 1075 6 2281 10 2680 7 570 9 125 12 -2080
l4 -2805 6 1949 c8 2555 0 4552 -18 4548 -8 -1 -11 2 -6 9 4 7 3 9 -2 6 -6 -3
-16 -1 -24 5 -12 8 -11 8 5 3 11 -3 17 -4 14 -1 -6 7 -582 14 -1131 15 -258 1
-398 5 -398 11 0 7 258 10 755 10 l755 0 32 -29 33 -29 7 -849 c8 -1135 14
-4322 7 -4063 -3 113 -3 -200 -1 -696 l5 -900 -31 -35 -30 -34 -519 -7 c-717
-9 -2893 -14 -2758 -7 61 4 2 4 -130 1 -132 -2 -670 -6 -1195 -7 -525 -2
-1154 -6 -1397 -10 l-443 -7 -62 23 -63 24 205 6 c113 3 -96 4 -465 2 -811 -4
-3538 -23 -3900 -27 -143 -2 237 -1 845 1 608 1 1600 6 2205 9 1077 6 1101 6
1145 -13 45 -20 40 -20 -2035 -26 -1144 -4 -2489 -7 -2988 -8 -857 0 -910 1
-939 18 -44 26 -70 65 -79 120 -4 26 -8 218 -8 426 -1 333 -3 377 -16 377 -14
0 -15 -47 -13 -418 l3 -417 27 -45 c16 -28 42 -54 69 -69 l43 -24 1100 1 c606
1 1569 4 2141 6 961 4 990 4 376 -4 -365 -5 -671 -11 -680 -14 -9 -3 202 -3
468 -1 266 3 1493 6 2725 7 1643 2 1973 4 1236 8 -909 5 -967 6 -600 12 223 5
1562 10 2975 13 1414 3 2607 8 2653 11 70 5 87 10 114 32 63 53 59 -211 47
3329 -10 2979 -12 3241 -27 3273 -10 20 -32 43 -52 53 -33 18 -71 18 -800 13
-749 -5 -766 -4 -778 15 -12 19 0 19 775 22 l788 2 -795 5 c-437 2 -736 7
-665 10 l130 6 -131 2 -132 2 -155 233 c-216 323 -242 356 -277 364 -32 6 -44
43 -14 43 62 0 103 -51 324 -407 35 -57 67 -103 71 -103 24 0 10 31 -69 156
-48 77 -96 153 -106 169 l-18 30 26 -30 c14 -16 26 -27 26 -23 0 9 -81 138
-87 138 -2 0 -1 -5 3 -12 5 -7 3 -8 -5 -4 -7 5 -10 14 -7 22 11 28 -86 114
-126 114 -7 0 7 -9 31 -20 24 -11 41 -23 38 -26 -3 -3 -16 1 -29 9 -12 8 -41
18 -63 22 -32 6 -36 9 -20 15 11 4 -25 7 -80 6 -55 0 -201 12 -325 27 -279 35
-655 46 -758 23z m420 -25 c-8 -4 57 -11 150 -15 90 -3 188 -9 218 -13 49 -6
52 -8 25 -14 -19 -4 9 -8 75 -9 83 -2 95 -4 60 -10 -32 -5 -12 -7 66 -7 118 0
134 -4 134 -32 0 -13 -12 -21 -42 -29 -42 -10 -42 -10 14 -5 43 4 64 2 82 -10
31 -21 232 -305 228 -323 -2 -8 3 -13 10 -12 7 2 12 -3 10 -11 -2 -7 5 -22 14
-32 10 -11 15 -21 12 -24 -2 -2 -21 17 -41 44 -25 33 -35 55 -31 67 5 15 4 16
-4 5 -9 -12 -13 -10 -23 12 -11 25 -13 25 -27 9 -12 -14 -12 -13 1 8 14 25 12
29 -62 132 -75 105 -110 135 -148 125 -14 -4 -13 -5 5 -6 13 0 32 -6 43 -11
20 -11 164 -219 156 -226 -2 -2 -43 38 -92 91 -62 67 -93 95 -108 94 l-22 -2
21 -4 c24 -4 122 -126 296 -362 l107 -146 -71 -3 c-39 -2 -73 -1 -76 2 -2 3 2
32 11 66 8 33 11 58 7 55 -4 -2 -13 -32 -20 -65 -13 -62 -34 -85 -24 -27 l5
32 -15 -32 c-11 -24 -22 -33 -38 -33 -18 0 -34 20 -80 98 -31 53 -64 106 -73
117 -23 28 -15 13 49 -93 60 -99 66 -112 40 -91 -15 12 -16 11 -9 -9 5 -19 4
-23 -10 -20 -9 2 -48 63 -91 146 -65 123 -73 142 -55 142 10 0 29 -12 41 -27
l22 -28 -16 27 c-9 15 -16 36 -16 47 0 11 -9 25 -20 31 -29 15 -25 28 8 23 26
-3 26 -3 3 7 -13 6 -37 20 -55 32 -22 16 -27 17 -17 5 17 -22 6 -35 -18 -20
-9 6 -30 9 -45 6 -18 -4 -23 -8 -16 -13 14 -8 5 -30 -11 -30 -6 0 -7 5 -3 12
5 8 -2 9 -23 5 -17 -3 -48 -3 -69 0 -32 5 -35 8 -19 15 14 6 10 7 -14 3 -33
-5 -394 56 -373 63 5 1 62 -6 126 -17 64 -11 126 -17 137 -13 19 7 -319 56
-393 57 -20 0 -34 4 -31 9 4 5 -21 6 -58 2 -60 -6 -62 -5 -29 7 36 13 131 28
296 47 111 12 137 13 130 1 -6 -9 36 -20 83 -22 26 -1 26 -1 -4 -10 -21 -5
-13 -6 30 -4 42 3 53 2 35 -4 -24 -9 -23 -9 9 -10 19 -1 62 -6 95 -11 42 -8
73 -8 101 -1 l40 11 -37 -5 c-21 -2 -38 0 -38 4 0 5 -26 11 -57 15 -97 10
-243 39 -243 48 0 4 24 8 53 8 67 0 376 -71 350 -81 -13 -6 -10 -8 14 -8 69
-2 81 -13 144 -145 32 -68 66 -129 74 -136 9 -7 -14 50 -51 126 -36 76 -68
147 -71 156 -3 11 -28 21 -81 33 -43 9 -120 27 -172 40 -52 13 -121 29 -153
35 -101 20 -57 20 83 -1 74 -11 142 -18 150 -16 8 1 -55 13 -140 26 -85 12
-162 25 -170 29 -8 3 36 9 99 13 62 5 116 11 120 15 6 6 -116 1 -284 -12 -53
-4 -66 -2 -55 6 12 9 6 10 -25 6 -35 -5 -97 4 -325 48 -14 3 27 3 90 2 80 -3
106 -1 85 5 -16 5 -115 8 -220 6 -168 -3 -196 -6 -237 -25 -54 -23 -65 -21
-17 4 61 31 150 42 339 43 102 0 179 -3 172 -8z m900 -125 c10 -19 10 -20 -6
-7 -9 8 -22 24 -28 35 -10 19 -10 20 6 7 9 -8 22 -24 28 -35z m-692 -5 l75
-18 -56 -8 c-32 -4 -71 -4 -88 0 -20 4 -31 3 -31 -4 0 -12 -106 -13 -155 -2
-28 7 -27 8 20 15 28 4 59 11 70 16 18 8 50 15 80 18 6 1 44 -7 85 -17z m-465
-49 c-12 -10 -87 -37 -129 -47 -27 -6 -28 -5 -16 12 8 10 1 6 -15 -9 -22 -21
-31 -41 -40 -100 l-12 -73 -2 55 c-1 69 14 126 37 135 9 4 31 9 47 11 17 2 48
8 70 13 55 12 71 13 60 3z m218 1 c-7 -2 -19 -2 -25 0 -7 3 -2 5 12 5 14 0 19
-2 13 -5z m-44 -7 c-8 -8 -221 -37 -227 -32 -3 3 -1 6 4 6 5 1 32 7 59 15 46
13 174 21 164 11z m-334 -183 c-4 -103 -3 -105 4 -27 9 92 14 104 42 104 13 0
25 -12 35 -35 18 -45 18 -48 -6 -42 -11 3 -20 0 -20 -6 0 -7 11 -12 25 -12 32
0 32 18 1 80 l-25 48 127 -6 c81 -3 196 -18 318 -41 222 -41 460 -92 490 -105
15 -7 45 -58 93 -157 39 -81 71 -148 71 -150 0 -2 -156 -5 -347 -7 l-348 -2
355 -5 c334 -4 344 -5 160 -10 l-195 -6 197 -2 c186 -2 198 -3 208 -22 11 -20
8 -20 -593 -20 l-604 0 -2 230 c-2 201 3 300 15 300 1 0 1 -48 -1 -107z m1333
-38 c-3 -3 -18 11 -33 32 l-28 38 34 -32 c18 -18 30 -35 27 -38z m-258 45 c0
-5 -2 -10 -4 -10 -3 0 -8 5 -11 10 -3 6 -1 10 4 10 6 0 11 -4 11 -10z m355
-157 c23 -35 44 -61 47 -58 5 6 108 -127 108 -139 0 -20 -24 1 -51 44 -17 28
-33 50 -35 50 -3 0 -2 -6 2 -12 15 -28 -16 11 -84 105 -40 53 -72 100 -72 104
0 14 45 -36 85 -94z m-290 -70 c21 -38 46 -83 57 -100 11 -18 16 -33 11 -33
-8 0 -117 200 -109 200 2 0 21 -30 41 -67z m122 -149 c-3 -3 -12 -4 -19 -1 -8
3 -5 6 6 6 11 1 17 -2 13 -5z m61 -1 c-10 -2 -26 -2 -35 0 -10 3 -2 5 17 5 19
0 27 -2 18 -5z m195 0 c-23 -2 -64 -2 -90 0 -26 2 -7 3 42 3 50 0 71 -1 48 -3z
m84 1 c-3 -3 -12 -4 -19 -1 -8 3 -5 6 6 6 11 1 17 -2 13 -5z m-357 -47 c0 -5
-4 -5 -10 -2 -5 3 -10 14 -10 23 0 15 2 15 10 2 5 -8 10 -19 10 -23z m40 13
c8 -16 8 -20 -4 -20 -9 0 -20 9 -26 20 -8 16 -8 20 4 20 9 0 20 -9 26 -20z
m40 13 c0 -5 -4 -14 -9 -22 -7 -11 -11 -9 -20 8 -10 18 -9 21 9 21 11 0 20 -3
20 -7z m30 -5 c0 6 4 12 9 12 5 0 7 -9 4 -19 -3 -12 -13 -19 -24 -18 -22 1
-21 0 -13 22 5 13 8 14 15 3 7 -10 9 -10 9 0z m218 0 c24 -24 10 -28 -93 -28
-58 0 -105 2 -105 4 0 30 15 36 99 36 54 0 92 -5 99 -12z m50 0 c16 -16 15
-28 -3 -28 -8 0 -19 9 -25 20 -8 15 -8 20 3 20 7 0 18 -5 25 -12z m37 -58 c4
-7 -47 -9 -147 -8 l-153 2 105 6 c178 10 189 10 195 0z m-667 -7 c-126 -2
-330 -2 -455 0 -126 1 -23 2 227 2 250 0 353 -1 228 -2z m292 -23 c0 -5 -4
-10 -10 -10 -5 0 -10 5 -10 10 0 6 5 10 10 10 6 0 10 -4 10 -10z m30 0 c0 -5
-4 -10 -10 -10 -5 0 -10 5 -10 10 0 6 5 10 10 10 6 0 10 -4 10 -10z m369 -5
c7 -7 -52 -9 -160 -7 -117 2 -168 6 -163 14 8 13 309 6 323 -7z m1517 -15 c12
-11 14 -112 12 -704 l-3 -691 -5 685 c-3 432 -6 -12 -8 -1201 -1 -1037 -5
-1948 -9 -2025 l-8 -139 -6 80 c-4 44 -5 -23 -3 -150 8 -488 12 -1616 4 -1540
-4 44 -5 -115 -2 -352 5 -494 15 -450 -93 -438 -46 5 -65 11 -65 21 0 9 11 14
35 14 19 0 35 -4 35 -9 0 -5 11 -11 24 -13 16 -3 28 2 37 16 18 28 20 56 3 56
-9 0 -14 12 -14 35 0 27 4 35 18 35 14 0 15 2 2 10 -10 6 -11 10 -2 10 6 0 12
5 12 10 0 6 -7 10 -15 10 -13 0 -15 23 -17 143 -1 88 -3 123 -7 92 -9 -69 -21
892 -23 1840 -1 435 -5 693 -8 575 -5 -194 -6 -201 -8 -74 -1 77 1 244 6 370
5 181 8 213 14 154 3 -41 3 62 0 230 -3 168 -6 853 -7 1523 l-1 1217 31 0 30
0 -3 -702 c-2 -387 -2 -701 1 -698 2 3 7 359 10 793 l6 787 -724 0 c-483 0
-725 3 -725 10 0 7 244 9 735 8 403 -2 731 0 727 4 -4 4 -337 8 -739 8 -403 1
-734 4 -737 8 -2 4 328 7 735 6 557 -2 744 -6 755 -14z m-1956 -20 c0 -9
-1498 -3 -1509 6 -2 2 336 4 752 4 494 0 757 -3 757 -10z m60 0 c0 -5 -2 -10
-4 -10 -3 0 -8 5 -11 10 -3 6 -1 10 4 10 6 0 11 -4 11 -10z m30 0 c0 -5 -2
-10 -4 -10 -3 0 -8 5 -11 10 -3 6 -1 10 4 10 6 0 11 -4 11 -10z m375 0 c4 -7
-58 -10 -179 -10 -117 0 -186 4 -186 10 0 6 66 10 179 10 109 0 182 -4 186
-10z m-2552 -7 c-177 -2 -469 -2 -650 0 -180 1 -35 2 322 2 358 0 505 -1 328
-2z m2586 -35 c14 -13 20 -16 14 -8 -7 8 -13 18 -13 22 0 4 281 8 625 8 l625
0 0 -33 0 -34 -827 -6 c-637 -5 -829 -3 -835 6 -4 6 -5 23 -2 37 4 22 3 22 -5
5 -5 -11 -10 -17 -10 -13 -1 3 -4 13 -7 22 -5 14 16 16 202 16 201 0 209 -1
233 -22z m1331 -5 c0 -22 -2 -25 -10 -13 -13 20 -13 40 0 40 6 0 10 -12 10
-27z m88 -10 c4 -39 -11 -43 -45 -11 -34 31 -30 50 10 46 28 -3 32 -7 35 -35z
m-1858 -61 c0 -5 -91 -12 -202 -16 -265 -10 -3318 -8 -4148 1 -533 7 -282 9
1450 13 1152 3 2276 6 2498 8 221 1 402 -2 402 -6z m400 -3 c-100 -4 -68 -5
105 -3 138 2 460 7 718 11 317 4 467 3 467 -4 0 -6 -19 -13 -42 -17 -73 -10
-1595 -17 -1573 -7 19 9 19 10 -2 10 -13 1 -23 6 -23 11 0 6 88 9 248 8 234
-2 239 -3 102 -9z m1460 1 c0 -13 -20 -13 -40 0 -12 8 -9 10 13 10 15 0 27 -4
27 -10z m-7540 -36 c976 -4 1777 -8 1779 -10 2 -2 -511 -5 -1140 -6 l-1144 -2
1280 -7 c704 -4 1820 -8 2480 -10 1184 -2 1243 -7 280 -24 -589 -9 -1591 -40
-1425 -43 52 -1 304 2 560 8 256 6 917 17 1470 25 553 8 1134 18 1293 21 240
5 287 4 287 -7 0 -26 17 -41 38 -35 13 5 18 13 15 25 -4 16 9 18 184 24 103 4
464 7 802 7 l613 0 -6 -2422 c-3 -1333 -9 -2699 -12 -3036 l-6 -613 -922 6
c-506 3 -1774 10 -2816 15 -1042 6 -2700 15 -3685 20 -984 5 -2401 12 -3148
16 l-1359 7 6 276 c3 152 11 1478 16 2946 6 1469 13 2708 16 2754 l6 84 1382
-6 c759 -4 2180 -10 3156 -13z m5638 9 c-32 -2 -84 -2 -115 0 -32 2 -6 3 57 3
63 0 89 -1 58 -3z m-3441 -29 c-3 -3 -12 -4 -19 -1 -8 3 -5 6 6 6 11 1 17 -2
13 -5z m211 -1 c-38 -2 -98 -2 -135 0 -38 2 -7 3 67 3 74 0 105 -1 68 -3z
m5026 -748 c8 -401 17 -1065 20 -1475 3 -530 1 -673 -5 -495 -17 503 -46 2715
-35 2704 2 -2 11 -332 20 -734z m16 413 c0 -177 -2 -319 -4 -317 -9 10 -14
639 -5 639 5 0 9 -126 9 -322z m-25 -1918 c9 -547 20 -1229 25 -1515 5 -286
10 -924 10 -1417 l0 -898 -35 0 -35 0 0 858 c0 979 13 4005 17 3982 1 -8 9
-463 18 -1010z m-48 -3658 c-1 -97 -2 -17 -2 178 0 195 1 275 2 177 2 -97 2
-257 0 -355z m100 1 c-1 -93 -3 -17 -3 167 0 184 2 260 3 168 2 -93 2 -243 0
-335z m-12160 -75 c-2 -24 -4 -7 -4 37 0 44 2 63 4 43 2 -21 2 -57 0 -80z m43
-78 c0 -5 -4 -10 -10 -10 -5 0 -10 5 -10 10 0 6 5 10 10 10 6 0 10 -4 10 -10z
m1635 -4 c11 -2 -337 -4 -772 -5 -436 0 -793 3 -793 7 0 7 1518 5 1565 -2z
m-1635 -26 c0 -5 -2 -10 -4 -10 -3 0 -8 5 -11 10 -3 6 -1 10 4 10 6 0 11 -4
11 -10z m27 -27 c-3 -10 -5 -4 -5 12 0 17 2 24 5 18 2 -7 2 -21 0 -30z m11875
10 c-51 -2 -132 -2 -180 0 -48 1 -6 3 93 3 99 0 138 -2 87 -3z m181 0 c-7 -2
-21 -2 -30 0 -10 3 -4 5 12 5 17 0 24 -2 18 -5z m-66 -60 c-3 -10 -5 -2 -5 17
0 19 2 27 5 18 2 -10 2 -26 0 -35z m43 43 c0 -2 -7 -9 -15 -16 -12 -10 -15
-10 -15 4 0 9 7 16 15 16 8 0 15 -2 15 -4z m19 -23 c-13 -16 -17 -22 -9 -15
20 17 30 15 30 -8 0 -13 -7 -20 -20 -20 -11 0 -20 5 -20 11 0 8 -6 7 -17 -2
-14 -11 -13 -8 2 11 20 25 47 49 54 50 3 0 -6 -12 -20 -27z m-12139 -30 c0
-37 0 -37 -15 -16 -9 12 -26 29 -38 38 -21 15 -21 15 16 15 36 0 37 -1 37 -37z
m12177 5 c-3 -7 -5 -2 -5 12 0 14 2 19 5 13 2 -7 2 -19 0 -25z m-17 -38 c0 -5
-14 -10 -31 -10 -17 0 -28 4 -24 10 3 6 17 10 31 10 13 0 24 -4 24 -10z m-83
-52 c-3 -8 -6 -5 -6 6 -1 11 2 17 5 13 3 -3 4 -12 1 -19z m-6374 -185 c-116
-2 -310 -2 -430 0 -120 1 -24 2 212 2 237 0 335 -1 218 -2z"/>
<path d="M9833 7603 c9 -2 25 -2 35 0 9 3 1 5 -18 5 -19 0 -27 -2 -17 -5z"/>
<path d="M9913 7593 c9 -2 25 -2 35 0 9 3 1 5 -18 5 -19 0 -27 -2 -17 -5z"/>
<path d="M9980 7578 c0 -10 103 -9 145 2 20 5 1 7 -57 7 -49 0 -88 -4 -88 -9z"/>
<path d="M10243 7543 c9 -2 23 -2 30 0 6 3 -1 5 -18 5 -16 0 -22 -2 -12 -5z"/>
<path d="M10303 7533 c9 -2 23 -2 30 0 6 3 -1 5 -18 5 -16 0 -22 -2 -12 -5z"/>
<path d="M10358 7523 c6 -2 18 -2 25 0 6 3 1 5 -13 5 -14 0 -19 -2 -12 -5z"/>
<path d="M10418 7513 c6 -2 18 -2 25 0 6 3 1 5 -13 5 -14 0 -19 -2 -12 -5z"/>
<path d="M10408 7473 c7 -3 16 -2 19 1 4 3 -2 6 -13 5 -11 0 -14 -3 -6 -6z"/>
<path d="M9930 7450 l-35 -7 35 -1 c19 0 46 4 60 8 l25 8 -25 0 c-14 0 -41 -4
-60 -8z"/>
<path d="M10013 7433 c9 -2 23 -2 30 0 6 3 -1 5 -18 5 -16 0 -22 -2 -12 -5z"/>
<path d="M10173 7333 c9 -2 23 -2 30 0 6 3 -1 5 -18 5 -16 0 -22 -2 -12 -5z"/>
<path d="M10233 7323 c9 -2 23 -2 30 0 6 3 -1 5 -18 5 -16 0 -22 -2 -12 -5z"/>
<path d="M10178 7313 c7 -3 16 -2 19 1 4 3 -2 6 -13 5 -11 0 -14 -3 -6 -6z"/>
<path d="M10303 7313 c9 -2 23 -2 30 0 6 3 -1 5 -18 5 -16 0 -22 -2 -12 -5z"/>
<path d="M10278 7293 c7 -3 16 -2 19 1 4 3 -2 6 -13 5 -11 0 -14 -3 -6 -6z"/>
<path d="M9878 7493 c6 -2 18 -2 25 0 6 3 1 5 -13 5 -14 0 -19 -2 -12 -5z"/>
<path d="M9413 7235 c0 -27 2 -38 4 -22 2 15 2 37 0 50 -2 12 -4 0 -4 -28z"/>
<path d="M9461 7223 c-1 -33 14 -36 28 -6 10 23 10 25 -2 14 -12 -9 -16 -9
-20 1 -3 7 -6 3 -6 -9z"/>
<path d="M9420 7127 c0 -20 4 -37 10 -37 5 0 7 14 3 33 -8 45 -13 47 -13 4z"/>
<path d="M9446 7145 c-9 -26 -7 -32 5 -12 6 10 9 21 6 23 -2 3 -7 -2 -11 -11z"/>
<path d="M10870 7051 c0 -6 4 -13 10 -16 6 -3 7 1 4 9 -7 18 -14 21 -14 7z"/>
<path d="M12575 4550 c0 -806 1 -1135 2 -733 2 403 2 1063 0 1465 -1 403 -2
74 -2 -732z"/>
<path d="M12504 5665 c0 -93 2 -133 3 -88 2 45 2 122 0 170 -1 48 -3 12 -3
-82z"/>
<path d="M12514 5170 c0 -118 2 -167 3 -107 2 59 2 155 0 215 -1 59 -3 10 -3
-108z"/>
<path d="M12524 4670 c0 -113 2 -159 3 -102 2 56 2 148 0 205 -1 56 -3 10 -3
-103z"/>
<path d="M12538 4470 c-6 -316 4 -1395 13 -1405 5 -4 0 1670 -4 1710 -2 11 -5
-126 -9 -305z"/>
<path d="M12514 3265 c0 -132 2 -185 3 -117 2 68 2 176 0 240 -1 64 -3 9 -3
-123z"/>
<path d="M12526 2696 c2 -159 4 -465 5 -680 1 -244 4 -378 10 -356 10 42 0
1130 -12 1245 -5 50 -6 -27 -3 -209z"/>
<path d="M12554 1415 c0 -137 2 -195 3 -128 2 67 2 179 0 250 -1 70 -3 16 -3
-122z"/>
<path d="M12534 1420 c0 -63 1 -89 3 -57 2 31 2 83 0 115 -2 31 -3 5 -3 -58z"/>
<path d="M3555 6551 c44 -3 703 -4 1465 -1 l1385 6 -1465 0 c-806 0 -1429 -2
-1385 -5z"/>
<path d="M8093 6543 c9 -2 25 -2 35 0 9 3 1 5 -18 5 -19 0 -27 -2 -17 -5z"/>
<path d="M3953 6533 c31 -2 83 -2 115 0 31 2 5 3 -58 3 -63 0 -89 -1 -57 -3z"/>
<path d="M4243 6523 c31 -2 83 -2 115 0 31 2 5 3 -58 3 -63 0 -89 -1 -57 -3z"/>
<path d="M4518 6513 c34 -2 88 -2 120 0 31 2 3 3 -63 3 -66 0 -92 -1 -57 -3z"/>
<path d="M5990 6510 c184 -3 349 -2 365 1 17 4 -134 7 -335 6 l-365 -1 335 -6z"/>
<path d="M4813 6503 c32 -2 81 -2 110 0 29 2 3 3 -58 3 -60 0 -84 -1 -52 -3z"/>
<path d="M5025 6501 c11 -5 139 -11 285 -13 166 -3 222 -2 150 2 -217 14 -456
21 -435 11z"/>
<path d="M6203 6493 c9 -2 25 -2 35 0 9 3 1 5 -18 5 -19 0 -27 -2 -17 -5z"/>
<path d="M6070 6483 c-25 -3 -48 -8 -52 -12 -11 -10 125 -1 137 10 9 9 3 9
-85 2z"/>
<path d="M6668 6483 c50 -2 134 -2 185 0 50 1 9 3 -93 3 -102 0 -143 -2 -92
-3z"/>
<path d="M5608 6473 c12 -2 32 -2 45 0 12 2 2 4 -23 4 -25 0 -35 -2 -22 -4z"/>
<path d="M6258 6473 c45 -2 119 -2 165 0 45 1 8 3 -83 3 -91 0 -128 -2 -82 -3z"/>
<path d="M6045 6113 c-263 -57 -470 -129 -687 -240 -301 -153 -551 -344 -757
-578 -333 -379 -534 -794 -623 -1292 -20 -113 -23 -160 -23 -408 0 -292 8
-376 56 -582 40 -174 135 -432 212 -577 32 -60 32 -65 18 -95 -8 -17 -18 -31
-22 -31 -3 0 -33 55 -67 123 -249 508 -321 1083 -206 1657 56 279 201 634 358
875 48 74 62 103 54 112 -6 7 -14 13 -18 13 -5 0 -36 -44 -71 -97 -205 -320
-339 -680 -395 -1058 -8 -55 -17 -185 -21 -290 -8 -271 16 -494 79 -735 17
-63 31 -127 31 -142 0 -15 3 -25 8 -23 4 3 5 -5 1 -17 -4 -16 -2 -19 8 -13 9
5 11 4 6 -3 -10 -17 55 -175 135 -330 67 -129 82 -172 57 -156 -15 9 29 -66
94 -164 242 -360 612 -687 1000 -883 119 -60 107 -46 -17 20 -347 183 -641
429 -880 736 -90 116 -158 222 -150 235 4 6 1 9 -7 8 -7 -2 -12 5 -12 14 1 10
-2 15 -7 12 -5 -3 -6 2 -3 11 5 13 11 9 29 -17 13 -18 21 -36 18 -41 -11 -18
266 -345 408 -482 405 -391 916 -636 1479 -711 254 -34 620 -18 879 37 166 36
415 124 586 208 778 384 1294 1103 1416 1971 22 156 17 534 -9 706 -56 364
-196 718 -411 1041 -221 331 -442 557 -739 754 -120 79 -417 239 -445 239 -6
0 61 -36 148 -79 177 -88 326 -182 455 -286 111 -89 272 -236 265 -243 -2 -3
-35 24 -73 59 -80 76 -209 177 -310 244 -60 40 -75 46 -83 34 -5 -8 -9 -17 -9
-20 0 -3 44 -35 98 -72 322 -219 603 -526 779 -852 146 -272 235 -529 267
-775 50 -380 17 -740 -99 -1109 -20 -63 -29 -81 -37 -70 -7 10 -8 5 -3 -16 4
-16 3 -26 -1 -22 -4 4 -23 -33 -40 -83 -61 -168 -196 -402 -323 -560 -76 -94
-251 -280 -263 -280 -6 0 13 26 43 58 118 125 274 320 300 376 7 15 5 14 -8
-4 -93 -130 -176 -233 -264 -330 -57 -63 -97 -110 -89 -106 8 5 -3 -10 -25
-33 -21 -22 -44 -41 -50 -41 -5 1 8 16 29 35 22 19 36 35 32 35 -4 0 -37 -27
-74 -59 -37 -33 -78 -69 -92 -81 -14 -12 -18 -18 -10 -14 8 4 11 3 7 -1 -4 -5
-14 -10 -21 -11 -7 -1 -42 -23 -77 -49 -86 -63 -230 -148 -342 -200 -100 -46
-267 -108 -274 -101 -3 2 20 12 51 22 38 12 52 21 44 27 -8 5 -4 6 12 2 19 -5
22 -4 10 4 -12 9 -13 11 -1 11 8 0 12 3 9 6 -3 3 -37 -10 -74 -29 -141 -70
-360 -131 -514 -141 -41 -3 -64 -2 -50 0 137 29 318 85 447 137 87 35 180 72
206 81 27 10 46 20 43 23 -2 2 -15 -1 -28 -7 -51 -27 3 10 95 64 145 85 275
187 438 343 169 161 262 262 339 368 14 18 14 19 -2 6 -22 -16 -24 1 -3 19 8
7 15 9 15 5 0 -4 7 -2 15 5 8 7 15 9 15 4 0 -5 7 -1 15 9 7 11 11 26 8 35 -4
10 -2 13 5 8 16 -9 183 329 175 351 -4 10 -2 14 4 10 11 -7 48 71 38 81 -3 3
-5 -1 -5 -8 0 -7 -2 -11 -5 -8 -3 3 6 40 19 82 14 42 23 83 19 92 -3 9 -16
-24 -30 -78 -13 -51 -42 -133 -63 -182 -22 -49 -37 -93 -33 -99 3 -6 2 -7 -4
-4 -6 4 -15 -5 -22 -19 -6 -15 -7 -23 -1 -19 14 9 13 -1 -5 -35 -16 -31 -32
-42 -21 -15 10 27 -3 16 -20 -16 -8 -17 -11 -28 -5 -25 16 10 13 -7 -5 -30
-13 -16 -15 -16 -10 -1 10 30 0 19 -54 -63 -61 -93 -80 -101 -26 -11 51 83
116 226 159 346 62 173 119 356 114 361 -3 3 -8 -9 -12 -26 -4 -17 -9 -29 -12
-27 -2 3 1 24 8 46 9 30 15 38 21 29 6 -8 7 0 3 22 -5 27 -4 31 5 20 8 -11 9
-6 5 25 -3 27 -2 33 3 20 8 -17 10 -14 16 17 4 20 4 49 1 65 -5 22 -4 25 5 13
8 -12 10 -4 6 34 -2 27 0 44 4 40 5 -5 10 -34 12 -64 2 -30 7 60 11 200 9 284
2 406 -39 608 -34 170 -92 340 -174 510 -90 185 -229 400 -250 387 -4 -3 -14
3 -21 13 -13 15 -12 16 4 3 9 -7 17 -9 17 -4 0 13 -35 45 -42 38 -3 -3 -13 5
-24 17 -15 18 -16 20 -1 9 14 -11 17 -11 17 0 1 8 10 3 24 -13 13 -15 27 -24
31 -20 4 4 5 2 3 -3 -1 -6 18 -37 43 -70 25 -33 67 -93 94 -132 26 -40 52 -70
58 -66 5 3 7 0 5 -8 -7 -19 20 -71 33 -63 6 3 9 -1 7 -9 -4 -21 64 -157 75
-150 6 4 8 -1 4 -11 -5 -11 -3 -15 5 -10 8 5 9 2 5 -9 -8 -21 12 -69 26 -60 5
3 7 -4 3 -18 -6 -19 -5 -21 4 -7 12 19 3 51 -13 41 -6 -4 -8 0 -4 11 8 20 -99
240 -113 231 -5 -3 -8 3 -7 13 2 26 -62 124 -76 115 -6 -4 -8 0 -5 9 10 24
-111 177 -256 326 -71 73 -135 131 -142 128 -7 -3 -20 5 -31 17 l-18 22 25
-20 25 -20 -25 28 c-13 15 -30 25 -36 23 -7 -3 -18 3 -26 12 -12 16 -11 16 7
2 20 -15 20 -15 1 8 -11 12 -26 20 -33 18 -7 -3 -15 0 -19 6 -4 7 -3 8 4 4 7
-4 12 -5 12 -2 0 3 -47 36 -105 74 -340 225 -805 369 -1140 352 l-100 -5 120
-7 c140 -9 280 -30 383 -58 40 -11 78 -18 83 -15 14 9 50 -5 43 -17 -4 -6 1
-8 16 -3 16 5 20 4 15 -5 -5 -9 -1 -10 15 -5 14 5 20 3 16 -3 -3 -6 8 -15 26
-21 38 -13 48 -14 28 -1 -8 5 -10 10 -5 10 13 0 43 -20 30 -20 -13 0 17 -20
30 -20 6 0 3 5 -5 10 -8 5 -10 10 -5 10 14 0 43 -20 30 -20 -12 -1 36 -29 50
-29 6 -1 3 4 -5 9 -8 5 -10 10 -5 10 14 0 42 -20 30 -20 -5 -1 16 -14 48 -31
32 -16 62 -27 67 -24 5 3 12 0 16 -6 4 -8 3 -9 -4 -5 -7 4 -12 5 -12 2 0 -11
61 -37 72 -30 6 4 8 3 5 -3 -4 -6 16 -25 44 -42 38 -23 55 -29 64 -21 9 8 15
8 20 0 4 -6 3 -9 -2 -8 -4 2 -9 -1 -11 -5 -1 -4 35 -36 80 -70 110 -82 291
-259 382 -371 180 -223 315 -482 394 -758 32 -112 66 -277 58 -285 -2 -3 -17
49 -32 116 -15 66 -32 117 -37 114 -5 -3 -6 3 -3 14 4 11 2 31 -3 44 -5 13
-10 19 -10 12 -1 -6 -4 -20 -7 -30 -5 -15 -4 -16 6 -3 12 16 12 15 -6 -60 -4
-18 -3 -21 4 -11 8 11 13 4 22 -30 29 -107 51 -265 55 -399 3 -126 3 -134 -5
-65 -13 110 -47 282 -71 359 -11 36 -17 78 -14 93 4 19 3 22 -3 10 -6 -15 -16
2 -45 75 -32 80 -88 183 -112 206 -4 4 9 -26 29 -65 75 -151 121 -297 163
-518 20 -109 29 -446 14 -571 -34 -289 -120 -511 -302 -784 -326 -486 -836
-807 -1424 -895 -132 -20 -420 -23 -550 -6 -232 31 -452 97 -654 197 -567 280
-965 797 -1096 1424 -36 168 -45 473 -21 657 86 650 485 1213 1066 1506 250
126 479 188 764 208 82 5 152 11 153 13 2 2 1 15 -3 30 -6 25 -9 26 -75 26
-315 0 -736 -127 -1017 -306 -29 -19 -57 -34 -62 -34 -5 0 -13 -6 -17 -13 -4
-6 -26 -25 -48 -41 -334 -245 -602 -622 -730 -1026 -91 -289 -115 -678 -60
-969 9 -46 14 -85 12 -88 -7 -6 -35 157 -47 267 -54 516 113 1076 441 1479 90
111 168 193 259 275 36 32 51 49 34 38 -17 -12 -36 -28 -43 -36 -7 -8 -18 -14
-24 -12 -7 1 -9 1 -6 -1 14 -8 -108 -113 -132 -114 -19 0 -21 -2 -7 -7 15 -6
10 -17 -36 -69 -134 -154 -217 -280 -312 -478 -175 -363 -236 -759 -182 -1187
6 -48 14 -86 17 -83 4 2 5 -10 3 -27 -3 -22 -1 -29 7 -24 9 6 10 0 5 -20 -5
-19 -4 -25 5 -20 8 6 10 0 6 -21 l-5 -28 15 30 c14 27 15 27 11 5 -17 -78 -17
-77 -2 -45 17 34 21 20 6 -20 -6 -15 -7 -38 -4 -52 l7 -26 14 24 14 24 -7 -25
c-4 -14 -9 -32 -11 -40 -2 -8 3 -4 12 10 l16 25 -7 -25 c-4 -14 -9 -32 -11
-40 -4 -13 -4 -13 6 0 8 11 11 12 11 2 0 -7 4 -10 10 -7 5 3 7 0 4 -9 -3 -8
13 -59 36 -113 65 -154 149 -300 238 -416 24 -32 42 -61 39 -64 -7 -6 -87 102
-139 190 -22 37 -42 67 -45 67 -8 0 45 -88 95 -160 160 -228 364 -427 587
-572 87 -56 295 -168 312 -168 4 0 -46 29 -112 63 -152 79 -246 140 -362 234
-97 78 -333 317 -333 336 0 7 31 -22 68 -63 200 -223 394 -371 653 -499 325
-161 646 -230 1013 -218 197 6 349 30 516 81 63 19 116 33 118 31 7 -6 -219
-74 -313 -94 -49 -11 -80 -20 -67 -20 92 -3 582 154 566 181 -4 7 -2 8 4 4 6
-4 47 12 92 34 82 41 114 67 38 30 -47 -22 -46 -22 85 63 49 32 92 56 94 53 3
-3 -24 -24 -61 -47 -73 -45 -91 -65 -23 -25 97 58 249 178 364 290 68 65 123
115 123 111 0 -30 -255 -297 -380 -398 -203 -164 -471 -308 -667 -357 -29 -8
-50 -17 -47 -22 3 -5 -7 -6 -23 -3 -22 5 -25 4 -13 -5 12 -9 8 -10 -20 -6 -23
4 -28 3 -16 -2 16 -7 11 -11 -28 -21 -73 -18 -234 -41 -301 -42 -47 -1 -53 -3
-30 -8 56 -14 -141 -24 -300 -16 -82 4 -171 6 -197 6 -129 -4 -487 84 -623
152 -403 201 -763 546 -994 953 -28 49 -51 94 -51 99 0 5 20 -25 45 -68 25
-42 48 -77 51 -77 3 0 -7 19 -21 42 -59 98 -118 212 -157 304 -22 55 -47 108
-54 119 -18 28 -70 246 -88 369 -46 309 -28 575 63 971 16 71 28 131 26 133
-12 12 -89 -289 -112 -438 -21 -140 -24 -498 -5 -635 58 -407 223 -805 463
-1115 195 -253 478 -497 729 -630 184 -98 403 -185 579 -230 23 -6 41 -13 39
-15 -7 -8 -219 52 -338 94 -63 23 -179 73 -258 112 -298 149 -524 326 -781
614 -29 33 -39 41 -22 18 136 -180 392 -407 612 -544 203 -126 537 -262 749
-304 102 -21 118 -30 35 -20 -190 22 -452 90 -580 151 -44 21 -86 38 -93 37
-7 -1 -11 2 -8 5 3 3 -27 24 -67 47 -572 326 -1014 923 -1177 1589 -32 128
-60 309 -60 382 0 25 -4 43 -9 40 -5 -4 -8 38 -6 97 3 102 3 102 -7 32 -16
-117 21 -392 82 -609 114 -403 338 -801 621 -1100 146 -155 405 -363 537 -430
19 -10 31 -20 28 -23 -7 -8 -202 97 -302 163 -249 164 -497 395 -615 574 -121
182 -117 172 -93 220 l19 41 45 -75 c24 -42 45 -74 47 -72 2 2 -27 54 -63 116
-150 252 -262 573 -309 880 -23 148 -30 449 -16 606 22 234 80 482 161 686 46
114 59 141 60 118 1 -16 59 88 59 105 0 6 -13 -15 -30 -45 -16 -30 -27 -44
-23 -30 10 36 64 143 70 137 3 -3 0 -15 -6 -27 -7 -12 -8 -20 -2 -16 5 3 13
-1 16 -10 8 -22 8 -26 -4 -19 -6 4 -7 -1 -3 -11 4 -11 3 -15 -4 -11 -20 13
-141 -319 -197 -539 -21 -82 -24 -109 -16 -145 l9 -44 -4 55 c-2 30 -1 49 2
41 3 -8 17 38 29 102 31 153 82 304 154 455 33 67 55 120 49 117 -14 -9 -11 2
12 46 11 23 16 38 10 34 -14 -8 -14 1 0 27 8 16 8 19 -1 13 -8 -5 -11 -3 -8 5
2 7 12 14 22 16 13 2 16 -2 11 -14 -11 -28 2 -9 67 99 339 563 929 976 1605
1124 59 13 97 23 83 23 -14 0 -34 -2 -45 -5z m1595 -719 c0 -8 -19 -13 -24 -6
-3 5 1 9 9 9 8 0 15 -2 15 -3z m24 -12 c3 -5 -1 -9 -9 -9 -8 0 -12 4 -9 9 3 4
7 8 9 8 2 0 6 -4 9 -8z m-3033 -79 c-79 -86 -214 -262 -214 -279 0 -7 -4 -11
-9 -8 -5 4 -8 -2 -6 -12 2 -12 -2 -18 -11 -16 -8 2 -11 -3 -8 -11 3 -7 -6 -31
-20 -53 -14 -21 -22 -30 -19 -19 6 20 6 20 -9 1 -8 -11 -15 -15 -15 -10 0 15
133 208 198 288 64 79 162 186 169 186 3 0 -23 -30 -56 -67z m3098 33 c11 -14
6 -15 -27 -7 -4 1 8 21 12 21 2 0 9 -6 15 -14z m86 -66 c3 -4 -2 -7 -10 -6 -9
1 -14 5 -13 9 5 10 -36 36 -46 30 -5 -4 -6 -1 -2 6 5 8 16 6 36 -9 16 -12 32
-25 35 -30z m479 24 c3 -8 2 -12 -4 -9 -6 3 -10 10 -10 16 0 14 7 11 14 -7z
m-433 -61 c13 -14 17 -22 9 -17 -8 5 -19 9 -24 9 -5 0 -10 8 -12 18 -3 22 -2
22 27 -10z m209 -189 c0 5 -6 17 -12 26 -7 9 0 2 15 -14 16 -17 32 -30 36 -29
4 1 23 -15 42 -35 19 -20 24 -28 12 -18 -13 11 -23 15 -23 11 0 -5 -11 2 -25
15 -14 13 -25 19 -25 14 0 -4 -36 27 -80 71 -44 44 -80 75 -80 70 0 -15 -24
13 -26 32 -2 9 35 -21 82 -68 46 -46 84 -80 84 -75z m-70 101 c13 -14 21 -25
18 -25 -2 0 -15 11 -28 25 -13 14 -21 25 -18 25 2 0 15 -11 28 -25z m221 -232
c13 -16 12 -17 -3 -4 -10 7 -18 15 -18 17 0 8 8 3 21 -13z m40 -50 c13 -16 12
-17 -3 -4 -17 13 -22 21 -14 21 2 0 10 -8 17 -17z m-3965 -36 c-2 -18 -8 -42
-14 -53 -9 -16 -10 -14 -7 16 3 33 13 70 20 70 2 0 2 -15 1 -33z m3995 -4 c13
-16 12 -17 -3 -4 -10 7 -18 15 -18 17 0 8 8 3 21 -13z m322 -1273 c0 -118 -5
-237 -11 -265 -9 -42 -9 -33 -4 50 8 118 7 327 -1 417 -6 53 -5 59 5 38 8 -17
12 -93 11 -240z m373 -112 c-12 -284 -45 -472 -127 -723 -59 -179 -187 -446
-284 -590 -190 -284 -436 -530 -715 -717 -120 -80 -398 -220 -544 -273 -147
-54 -361 -107 -434 -108 -34 0 -57 -4 -50 -8 7 -4 -10 -7 -37 -6 -28 1 -120
-4 -205 -11 -222 -19 -501 1 -708 49 -153 35 -387 119 -533 190 -125 61 -309
164 -309 174 0 1 55 -26 123 -61 67 -35 127 -64 132 -64 6 0 -55 34 -134 75
-236 123 -378 229 -561 421 -74 77 -56 68 40 -21 85 -79 243 -197 356 -267
117 -72 252 -140 264 -133 6 3 18 1 27 -5 15 -9 14 -10 -7 -5 -50 12 7 -14
184 -85 98 -38 182 -68 186 -65 5 3 55 -6 112 -20 194 -46 325 -57 698 -59
l345 -1 170 38 c462 105 826 280 1140 549 130 112 249 236 342 356 36 48 70
91 74 95 4 5 10 3 14 -4 5 -8 4 -10 -3 -5 -8 5 -10 1 -5 -10 5 -13 3 -15 -7
-9 -9 6 -11 4 -5 -6 5 -8 5 -11 0 -7 -4 4 -32 -28 -62 -70 -132 -184 -307
-364 -474 -489 -49 -36 -87 -70 -86 -76 1 -5 -4 -12 -12 -15 -8 -2 -11 0 -8 6
7 9 -202 -112 -213 -125 -3 -4 21 8 54 26 32 18 60 30 63 27 7 -7 -176 -112
-300 -172 -62 -29 -107 -53 -100 -54 24 0 303 148 413 221 331 218 691 602
855 914 49 93 23 59 -44 -60 -30 -52 -56 -93 -59 -91 -2 3 14 35 36 73 66 114
177 336 212 427 18 47 38 83 43 79 5 -3 6 4 2 17 -4 14 -3 20 3 16 13 -8 66
187 92 339 11 66 26 202 32 303 7 100 14 182 17 182 2 0 1 -73 -3 -162z m-349
-150 c-2 -13 -4 -5 -4 17 -1 22 1 32 4 23 2 -10 2 -28 0 -40z m-70 -90 c-2
-13 -4 -3 -4 22 0 25 2 35 4 23 2 -13 2 -33 0 -45z m40 -80 c-3 -8 -6 -5 -6 6
-1 11 2 17 5 13 3 -3 4 -12 1 -19z m-63 -122 c-3 -15 -8 -25 -11 -23 -2 3 -1
17 3 31 3 15 8 25 11 23 2 -3 1 -17 -3 -31z m-4043 -67 c-5 -13 -10 -19 -10
-12 -1 15 10 45 15 40 3 -2 0 -15 -5 -28z m3963 -255 c-15 -32 -28 -72 -30
-88 -6 -43 -134 -303 -200 -403 -82 -127 -176 -244 -233 -293 -28 -23 -49 -45
-46 -49 5 -9 -63 -76 -130 -125 -27 -21 -50 -42 -50 -47 0 -15 -152 -124 -285
-203 -139 -83 -211 -118 -313 -151 -37 -12 -65 -24 -62 -27 18 -17 -344 -109
-506 -129 -148 -18 -423 9 -634 62 -107 27 -268 79 -262 85 2 2 51 -7 108 -21
288 -70 646 -77 952 -20 157 30 428 105 421 116 -3 5 2 6 10 3 8 -3 23 -1 33
6 16 10 15 10 -7 6 -17 -4 -14 -1 10 10 127 57 309 148 305 152 -2 3 35 32 83
64 48 33 116 84 152 113 104 85 280 271 367 388 96 129 257 402 247 419 -4 6
-3 8 4 4 6 -4 10 1 9 12 -1 20 76 196 81 183 1 -4 -9 -34 -24 -67z m86 -21
c-11 -17 -11 -17 -6 0 3 10 6 24 7 30 0 9 2 9 5 0 3 -7 0 -20 -6 -30z m-266
-295 c-9 -18 -39 -62 -66 -96 -27 -35 -47 -66 -44 -69 3 -3 -4 -19 -15 -35
-12 -16 -24 -27 -27 -24 -3 3 3 16 14 28 10 13 -21 -19 -70 -70 -114 -120
-329 -302 -342 -290 -2 3 29 30 70 61 149 112 359 332 453 473 40 61 52 70 27
22z m76 -67 c-11 -17 -19 -34 -16 -39 2 -4 1 -14 -5 -22 -7 -13 -9 -13 -9 -1
0 11 -4 9 -15 -5 -8 -10 -15 -16 -15 -11 0 12 72 118 78 113 2 -3 -6 -19 -18
-35z m-95 -114 c0 -25 -88 -139 -147 -192 -36 -33 -33 -29 61 82 29 34 54 67
55 75 2 13 25 58 29 58 2 0 3 -11 2 -23z m-185 -471 c0 -2 -21 -20 -47 -41
l-48 -37 45 41 c45 41 50 45 50 37z m-125 -186 c-3 -5 -16 -15 -28 -21 -19 -9
-19 -8 3 10 28 23 34 26 25 11z m-75 -54 c0 -7 -82 -57 -86 -53 -3 2 14 16 38
30 46 28 48 29 48 23z m-1757 -313 c-7 -2 -19 -2 -25 0 -7 3 -2 5 12 5 14 0
19 -2 13 -5z m90 -10 c-7 -2 -21 -2 -30 0 -10 3 -4 5 12 5 17 0 24 -2 18 -5z"/>
<path d="M4360 4950 c-6 -11 -8 -20 -6 -20 3 0 10 9 16 20 6 11 8 20 6 20 -3
0 -10 -9 -16 -20z"/>
<path d="M8110 5016 c0 -2 8 -10 18 -17 15 -13 16 -12 3 4 -13 16 -21 21 -21
13z"/>
<path d="M8806 2655 c-9 -26 -7 -32 5 -12 6 10 9 21 6 23 -2 3 -7 -2 -11 -11z"/>
<path d="M8786 2605 c-9 -26 -7 -32 5 -12 6 10 9 21 6 23 -2 3 -7 -2 -11 -11z"/>
<path d="M8757 2535 c-24 -50 -20 -58 4 -12 11 22 19 41 17 43 -3 2 -12 -12
-21 -31z"/>
<path d="M7600 1320 c-30 -16 -51 -29 -47 -30 10 0 107 49 107 55 0 7 1 7 -60
-25z"/>
<path d="M5330 1276 c14 -7 36 -16 50 -20 14 -3 7 3 -15 13 -45 22 -73 27 -35
7z"/>
<path d="M7475 1264 c-16 -8 -50 -23 -75 -34 -25 -11 -34 -17 -20 -14 31 8
149 62 135 63 -5 0 -23 -7 -40 -15z"/>
<path d="M5420 1240 c8 -5 20 -10 25 -10 6 0 3 5 -5 10 -8 5 -19 10 -25 10 -5
0 -3 -5 5 -10z"/>
<path d="M5500 1210 c8 -5 22 -9 30 -9 10 0 8 3 -5 9 -27 12 -43 12 -25 0z"/>
<path d="M7270 1185 c-36 -13 -60 -24 -54 -24 13 -1 134 39 134 45 0 7 -12 4
-80 -21z"/>
<path d="M5685 1185 c17 -8 37 -14 45 -14 8 0 -1 7 -20 14 -46 18 -64 17 -25
0z"/>
<path d="M5595 1180 c11 -5 27 -9 35 -9 9 0 8 4 -5 9 -11 5 -27 9 -35 9 -9 0
-8 -4 5 -9z"/>
<path d="M7340 1170 c-8 -5 -10 -10 -5 -10 6 0 17 5 25 10 8 5 11 10 5 10 -5
0 -17 -5 -25 -10z"/>
<path d="M5658 1163 c7 -3 16 -2 19 1 4 3 -2 6 -13 5 -11 0 -14 -3 -6 -6z"/>
<path d="M5698 1153 c7 -3 16 -2 19 1 4 3 -2 6 -13 5 -11 0 -14 -3 -6 -6z"/>
<path d="M5788 1153 c7 -3 16 -2 19 1 4 3 -2 6 -13 5 -11 0 -14 -3 -6 -6z"/>
<path d="M7275 1145 c-25 -12 -26 -14 -5 -9 28 7 60 23 45 23 -5 0 -23 -6 -40
-14z"/>
<path d="M5738 1143 c7 -3 16 -2 19 1 4 3 -2 6 -13 5 -11 0 -14 -3 -6 -6z"/>
<path d="M7148 1143 c7 -3 16 -2 19 1 4 3 -2 6 -13 5 -11 0 -14 -3 -6 -6z"/>
<path d="M5778 1133 c7 -3 16 -2 19 1 4 3 -2 6 -13 5 -11 0 -14 -3 -6 -6z"/>
<path d="M5830 1130 l-25 -9 25 1 c14 1 32 -2 40 -5 21 -9 291 -45 375 -51 51
-3 59 -2 30 3 -30 6 -5 9 95 11 120 3 109 4 -100 10 -162 5 -257 12 -305 23
-38 9 -79 19 -90 21 -11 2 -31 1 -45 -4z"/>
<path d="M7060 1125 c-25 -7 -36 -13 -25 -13 11 0 38 5 60 13 52 17 24 17 -35
0z"/>
<path d="M6698 1113 c6 -2 18 -2 25 0 6 3 1 5 -13 5 -14 0 -19 -2 -12 -5z"/>
<path d="M6633 1103 c9 -2 23 -2 30 0 6 3 -1 5 -18 5 -16 0 -22 -2 -12 -5z"/>
<path d="M6978 1103 c6 -2 18 -2 25 0 6 3 1 5 -13 5 -14 0 -19 -2 -12 -5z"/>
<path d="M6538 1093 c12 -2 32 -2 45 0 12 2 2 4 -23 4 -25 0 -35 -2 -22 -4z"/>
<path d="M6928 1093 c6 -2 18 -2 25 0 6 3 1 5 -13 5 -14 0 -19 -2 -12 -5z"/>
<path d="M7105 1090 c-13 -5 -14 -9 -5 -9 8 0 24 4 35 9 13 5 14 9 5 9 -8 0
-24 -4 -35 -9z"/>
<path d="M6863 1083 c9 -2 25 -2 35 0 9 3 1 5 -18 5 -19 0 -27 -2 -17 -5z"/>
<path d="M6793 1073 c9 -2 25 -2 35 0 9 3 1 5 -18 5 -19 0 -27 -2 -17 -5z"/>
<path d="M7058 1073 c7 -3 16 -2 19 1 4 3 -2 6 -13 5 -11 0 -14 -3 -6 -6z"/>
<path d="M6678 1063 c18 -2 45 -2 60 0 15 2 0 4 -33 4 -33 0 -45 -2 -27 -4z"/>
<path d="M7018 1063 c7 -3 16 -2 19 1 4 3 -2 6 -13 5 -11 0 -14 -3 -6 -6z"/>
<path d="M6423 1053 c37 -2 97 -2 135 0 37 2 6 3 -68 3 -74 0 -105 -1 -67 -3z"/>
<path d="M6978 1053 c7 -3 16 -2 19 1 4 3 -2 6 -13 5 -11 0 -14 -3 -6 -6z"/>
<path d="M6928 1043 c6 -2 18 -2 25 0 6 3 1 5 -13 5 -14 0 -19 -2 -12 -5z"/>
<path d="M6878 1033 c6 -2 18 -2 25 0 6 3 1 5 -13 5 -14 0 -19 -2 -12 -5z"/>
<path d="M7870 1778 c-41 -34 -121 -91 -177 -127 -138 -90 -144 -94 -115 -80
13 6 26 8 29 5 3 -2 -22 -19 -56 -35 -34 -17 -61 -34 -61 -37 0 -7 149 73 180
97 15 11 18 17 8 13 -29 -10 -20 2 22 30 46 30 58 33 39 9 -13 -15 -12 -15 8
-2 12 7 18 16 13 19 -6 3 18 27 53 53 67 50 145 116 137 116 -3 0 -39 -27 -80
-61z m-224 -183 c-11 -8 -25 -15 -30 -15 -6 0 -2 7 8 15 11 8 25 15 30 15 6 0
2 -7 -8 -15z"/>
<path d="M7365 1450 c-44 -21 -75 -39 -70 -39 6 0 46 17 90 38 44 22 76 39 70
39 -5 0 -46 -17 -90 -38z"/>
<path d="M7068 1283 c7 -3 16 -2 19 1 4 3 -2 6 -13 5 -11 0 -14 -3 -6 -6z"/>
<path d="M7028 1273 c7 -3 16 -2 19 1 4 3 -2 6 -13 5 -11 0 -14 -3 -6 -6z"/>
<path d="M6978 1263 c6 -2 18 -2 25 0 6 3 1 5 -13 5 -14 0 -19 -2 -12 -5z"/>
<path d="M6923 1253 c9 -2 23 -2 30 0 6 3 -1 5 -18 5 -16 0 -22 -2 -12 -5z"/>
<path d="M6853 1243 c9 -2 25 -2 35 0 9 3 1 5 -18 5 -19 0 -27 -2 -17 -5z"/>
<path d="M6768 1233 c12 -2 32 -2 45 0 12 2 2 4 -23 4 -25 0 -35 -2 -22 -4z"/>
<path d="M6623 1223 c20 -2 54 -2 75 0 20 2 3 4 -38 4 -41 0 -58 -2 -37 -4z"/>
<path d="M7360 5930 c8 -5 20 -10 25 -10 6 0 3 5 -5 10 -8 5 -19 10 -25 10 -5
0 -3 -5 5 -10z"/>
<path d="M4970 5548 c-249 -193 -533 -522 -654 -756 -32 -62 -8 -31 39 51 56
96 135 210 142 203 3 -2 -13 -31 -35 -63 -46 -68 -106 -173 -99 -173 3 0 20
26 37 58 140 249 412 551 665 739 17 12 26 22 20 22 -5 0 -57 -36 -115 -81z
m-356 -365 c-115 -141 -114 -140 -114 -127 0 10 197 244 205 244 3 0 -38 -53
-91 -117z"/>
<path d="M7972 5353 c194 -157 366 -347 497 -550 86 -132 97 -148 66 -90 -45
83 -19 64 31 -22 47 -81 69 -110 38 -48 -22 42 -95 157 -100 157 -2 0 -1 -8 2
-17 4 -12 -1 -9 -15 7 -25 30 -27 48 -4 29 9 -8 2 8 -16 35 -98 143 -320 373
-482 499 -48 37 -90 67 -94 67 -4 0 31 -30 77 -67z m443 -438 c32 -41 56 -77
54 -80 -3 -2 -33 35 -67 81 -76 104 -67 103 13 -1z"/>
<path d="M8290 5395 c0 -6 30 -40 66 -75 157 -154 325 -384 438 -600 34 -66
66 -117 71 -113 4 5 5 -1 2 -12 -4 -11 0 -31 7 -44 11 -20 14 -21 19 -7 5 12
3 15 -5 10 -8 -5 -9 -2 -5 10 5 11 3 15 -5 10 -8 -5 -9 -2 -5 10 14 36 -187
368 -326 541 -80 99 -256 284 -257 270z"/>
<path d="M7693 5204 c124 -126 235 -265 307 -389 54 -91 66 -91 16 0 -20 36
-36 68 -36 72 0 11 81 -83 152 -177 74 -98 97 -127 83 -100 -41 73 -247 320
-268 320 -7 0 -31 27 -55 60 -24 33 -82 103 -128 155 -47 52 -81 95 -76 95 4
0 55 -38 113 -84 191 -153 373 -361 487 -554 66 -112 77 -128 51 -72 -27 56
-116 195 -178 275 -60 79 -249 273 -331 340 -88 71 -176 133 -166 116 6 -9 5
-12 -5 -9 -8 3 -14 10 -14 17 0 6 -16 21 -35 33 -21 13 11 -25 83 -98z"/>
<path d="M5268 5173 c7 -3 16 -2 19 1 4 3 -2 6 -13 5 -11 0 -14 -3 -6 -6z"/>
<path d="M5228 5163 c7 -3 16 -2 19 1 4 3 -2 6 -13 5 -11 0 -14 -3 -6 -6z"/>
<path d="M5188 5153 c7 -3 16 -2 19 1 4 3 -2 6 -13 5 -11 0 -14 -3 -6 -6z"/>
<path d="M5035 5110 c-208 -74 -495 -234 -620 -345 -24 -22 -9 -14 38 20 173
125 392 242 557 299 l75 26 -35 -31 c-19 -17 -53 -40 -75 -50 -22 -10 -29 -16
-15 -13 22 5 20 1 -20 -40 -24 -25 -53 -46 -65 -46 -13 0 -16 -3 -8 -8 8 -5
-5 -28 -43 -72 -31 -36 -74 -91 -96 -123 -23 -31 -43 -56 -45 -53 -2 2 8 29
22 61 14 32 25 60 25 64 -1 12 -113 -166 -141 -224 -36 -74 -21 -54 32 43 44
80 63 91 30 18 -11 -25 -17 -46 -13 -46 4 1 30 35 59 78 73 108 202 262 221
262 8 0 12 3 8 7 -8 9 84 103 101 103 7 0 13 4 13 10 0 5 8 7 18 4 12 -4 13
-3 5 3 -17 12 39 66 82 81 17 6 23 11 15 11 -8 0 -64 -18 -125 -39z m-352
-405 c-3 -9 -8 -14 -10 -11 -3 3 -2 9 2 15 9 16 15 13 8 -4z"/>
<path d="M7900 5126 c0 -5 18 -25 40 -43 108 -93 328 -380 401 -524 16 -33 32
-59 34 -59 22 0 -144 263 -239 380 -73 90 -235 259 -236 246z"/>
<path d="M4890 4995 c-14 -8 -20 -14 -15 -14 6 0 21 6 35 14 14 8 21 14 15 14
-5 0 -21 -6 -35 -14z"/>
<path d="M4750 4929 c-52 -27 -99 -55 -105 -60 -8 -9 200 96 214 108 2 1 0 3
-5 3 -5 0 -52 -23 -104 -51z"/>
<path d="M4752 4893 c-24 -8 -41 -17 -39 -19 2 -2 28 5 58 15 30 11 47 20 39
19 -8 0 -34 -6 -58 -15z"/>
<path d="M4670 4860 c-8 -5 -10 -10 -5 -10 6 0 17 5 25 10 8 5 11 10 5 10 -5
0 -17 -5 -25 -10z"/>
<path d="M4586 4834 c-47 -32 -46 -39 2 -16 20 11 44 21 51 24 13 4 12 5 -1
10 -9 4 -32 -4 -52 -18z"/>
<path d="M4314 4729 c-19 -39 -34 -73 -32 -75 2 -2 21 30 41 71 20 41 35 75
32 75 -3 0 -21 -32 -41 -71z"/>
<path d="M8615 4656 c41 -82 75 -154 75 -160 -1 -6 -14 15 -31 47 -40 78 -46
72 -7 -7 17 -36 36 -62 41 -59 6 3 7 2 4 -4 -4 -6 14 -61 39 -122 45 -114 104
-330 104 -386 0 -23 3 -27 10 -15 8 11 9 -1 6 -40 -4 -41 -3 -46 3 -20 l8 35
5 -30 c3 -16 3 -6 1 23 -7 79 -47 238 -100 397 -43 127 -179 421 -217 470 -9
11 18 -47 59 -129z"/>
<path d="M8607 4565 c26 -52 49 -93 51 -91 4 5 -86 186 -93 186 -3 0 16 -43
42 -95z"/>
<path d="M4246 4579 c-15 -34 -25 -63 -23 -65 2 -2 16 24 30 58 15 34 25 63
23 65 -2 2 -15 -24 -30 -58z"/>
<path d="M8110 4636 c0 -3 29 -43 64 -89 35 -47 83 -117 106 -156 23 -39 44
-71 47 -71 12 0 -82 147 -154 243 -24 31 -41 57 -38 57 3 0 19 -7 35 -15 17
-9 30 -13 30 -10 0 5 -75 45 -85 45 -3 0 -5 -2 -5 -4z"/>
<path d="M4172 4585 c-17 -37 -14 -45 4 -12 9 16 14 31 11 33 -2 2 -9 -7 -15
-21z"/>
<path d="M8215 4580 c3 -5 8 -10 11 -10 2 0 4 5 4 10 0 6 -5 10 -11 10 -5 0
-7 -4 -4 -10z"/>
<path d="M4141 4509 c-6 -18 -9 -34 -7 -36 2 -2 9 10 15 28 6 18 9 34 7 36 -2
2 -9 -10 -15 -28z"/>
<path d="M8896 4525 c-3 -9 -2 -24 2 -32 8 -13 10 -13 16 2 3 9 2 24 -2 32 -8
13 -10 13 -16 -2z"/>
<path d="M4186 4423 c-14 -43 -26 -83 -25 -88 0 -6 14 28 30 74 16 47 27 86
25 88 -2 3 -16 -31 -30 -74z"/>
<path d="M4522 4445 c-30 -62 -27 -71 4 -12 14 27 24 51 22 53 -3 2 -14 -17
-26 -41z"/>
<path d="M8381 4485 c0 -5 13 -35 29 -65 16 -30 29 -50 29 -45 0 6 -13 35 -29
65 -16 30 -29 51 -29 45z"/>
<path d="M8910 4465 c0 -5 4 -16 9 -23 6 -11 10 -10 15 4 3 9 4 19 1 22 -3 3
-5 -1 -5 -9 0 -11 -2 -11 -10 1 -5 8 -10 11 -10 5z"/>
<path d="M8665 4443 c4 -10 16 -42 27 -71 12 -29 23 -51 25 -48 5 5 -47 136
-54 136 -3 0 -2 -8 2 -17z"/>
<path d="M8936 4424 c-3 -9 -4 -19 -1 -22 3 -3 5 1 5 9 0 11 2 11 10 -1 5 -8
10 -10 10 -5 0 6 -4 16 -9 23 -6 11 -10 10 -15 -4z"/>
<path d="M8391 4415 c0 -5 8 -26 19 -45 11 -19 19 -30 19 -25 0 6 -8 26 -19
45 -11 19 -19 31 -19 25z"/>
<path d="M8946 4370 c4 -14 15 -47 26 -75 17 -46 17 -39 2 25 -5 20 -4 22 6
10 9 -12 10 -10 4 10 -3 14 -10 32 -15 40 -7 13 -8 13 -9 0 0 -13 -1 -13 -11
0 -8 11 -9 9 -3 -10z m21 -22 c-3 -8 -6 -5 -6 6 -1 11 2 17 5 13 3 -3 4 -12 1
-19z"/>
<path d="M4486 4365 c-9 -26 -7 -32 5 -12 6 10 9 21 6 23 -2 3 -7 -2 -11 -11z"/>
<path d="M8440 4355 c0 -5 5 -17 10 -25 5 -8 10 -10 10 -5 0 6 -5 17 -10 25
-5 8 -10 11 -10 5z"/>
<path d="M4076 4314 c-4 -14 -5 -28 -3 -31 3 -2 8 8 11 23 4 14 5 28 3 31 -3
2 -8 -8 -11 -23z"/>
<path d="M4456 4284 c-9 -26 -14 -49 -12 -51 2 -2 11 17 20 43 9 26 14 49 12
51 -2 2 -11 -17 -20 -43z"/>
<path d="M8430 4325 c0 -5 5 -17 10 -25 5 -8 10 -10 10 -5 0 6 -5 17 -10 25
-5 8 -10 11 -10 5z"/>
<path d="M4146 4294 c-4 -14 -5 -28 -3 -31 3 -2 8 8 11 23 4 14 5 28 3 31 -3
2 -8 -8 -11 -23z"/>
<path d="M8566 4305 c-7 -20 4 -46 16 -39 6 4 8 -2 4 -17 -6 -19 -5 -21 4 -7
12 19 3 51 -12 42 -6 -4 -8 2 -3 15 7 24 0 29 -9 6z"/>
<path d="M8466 4285 c4 -23 3 -26 -5 -15 -13 19 -14 0 -1 -20 9 -13 10 -13 10
0 0 13 1 13 11 0 8 -11 9 -9 3 10 -11 40 -25 60 -18 25z"/>
<path d="M9001 4270 c0 -8 4 -24 9 -35 5 -13 9 -14 9 -5 0 8 -4 24 -9 35 -5
13 -9 14 -9 5z"/>
<path d="M4050 4220 c-7 -28 -10 -53 -8 -55 3 -3 10 18 16 47 7 28 11 53 8 55
-2 2 -9 -19 -16 -47z"/>
<path d="M4131 4234 c0 -11 3 -14 6 -6 3 7 2 16 -1 19 -3 4 -6 -2 -5 -13z"/>
<path d="M8596 4225 c-9 -26 -7 -32 5 -12 6 10 9 21 6 23 -2 3 -7 -2 -11 -11z"/>
<path d="M4121 4194 c0 -11 3 -14 6 -6 3 7 2 16 -1 19 -3 4 -6 -2 -5 -13z"/>
<path d="M8606 4195 c-9 -26 -7 -32 5 -12 6 10 9 21 6 23 -2 3 -7 -2 -11 -11z"/>
<path d="M9001 4194 c0 -11 3 -14 6 -6 3 7 2 16 -1 19 -3 4 -6 -2 -5 -13z"/>
<path d="M4416 4164 c-4 -14 -5 -28 -3 -31 3 -2 8 8 11 23 4 14 5 28 3 31 -3
2 -8 -8 -11 -23z"/>
<path d="M8761 4180 c0 -8 4 -24 9 -35 5 -13 9 -14 9 -5 0 8 -4 24 -9 35 -5
13 -9 14 -9 5z"/>
<path d="M8616 4165 c-9 -26 -7 -32 5 -12 6 10 9 21 6 23 -2 3 -7 -2 -11 -11z"/>
<path d="M9031 4164 c0 -11 3 -14 6 -6 3 7 2 16 -1 19 -3 4 -6 -2 -5 -13z"/>
<path d="M4111 4154 c0 -11 3 -14 6 -6 3 7 2 16 -1 19 -3 4 -6 -2 -5 -13z"/>
<path d="M9011 4154 c0 -11 3 -14 6 -6 3 7 2 16 -1 19 -3 4 -6 -2 -5 -13z"/>
<path d="M4031 4134 c0 -11 3 -14 6 -6 3 7 2 16 -1 19 -3 4 -6 -2 -5 -13z"/>
<path d="M8625 4130 c-4 -12 -5 -24 -2 -27 3 -2 8 5 12 17 4 12 5 24 2 27 -3
2 -8 -5 -12 -17z"/>
<path d="M9041 4124 c0 -11 3 -14 6 -6 3 7 2 16 -1 19 -3 4 -6 -2 -5 -13z"/>
<path d="M4102 4110 c0 -14 2 -19 5 -12 2 6 2 18 0 25 -3 6 -5 1 -5 -13z"/>
<path d="M9021 4114 c0 -11 3 -14 6 -6 3 7 2 16 -1 19 -3 4 -6 -2 -5 -13z"/>
<path d="M4390 4070 c-7 -28 -10 -53 -8 -55 3 -3 10 18 16 47 7 28 11 53 8 55
-2 2 -9 -19 -16 -47z"/>
<path d="M8781 4104 c0 -11 3 -14 6 -6 3 7 2 16 -1 19 -3 4 -6 -2 -5 -13z"/>
<path d="M4022 4090 c0 -14 2 -19 5 -12 2 6 2 18 0 25 -3 6 -5 1 -5 -13z"/>
<path d="M8636 4095 c-3 -9 -6 -22 -5 -28 0 -7 5 -1 10 12 5 13 8 26 5 28 -2
2 -6 -3 -10 -12z"/>
<path d="M9051 4084 c0 -11 3 -14 6 -6 3 7 2 16 -1 19 -3 4 -6 -2 -5 -13z"/>
<path d="M9031 4074 c0 -11 3 -14 6 -6 3 7 2 16 -1 19 -3 4 -6 -2 -5 -13z"/>
<path d="M4092 4055 c0 -16 2 -22 5 -12 2 9 2 23 0 30 -3 6 -5 -1 -5 -18z"/>
<path d="M8646 4054 c-4 -14 -5 -28 -3 -31 3 -2 8 8 11 23 4 14 5 28 3 31 -3
2 -8 -8 -11 -23z"/>
<path d="M8791 4064 c0 -11 3 -14 6 -6 3 7 2 16 -1 19 -3 4 -6 -2 -5 -13z"/>
<path d="M4012 4035 c0 -16 2 -22 5 -12 2 9 2 23 0 30 -3 6 -5 -1 -5 -18z"/>
<path d="M9062 4040 c0 -14 2 -19 5 -12 2 6 2 18 0 25 -3 6 -5 1 -5 -13z"/>
<path d="M9042 4025 c0 -16 2 -22 5 -12 2 9 2 23 0 30 -3 6 -5 -1 -5 -18z"/>
<path d="M8656 4014 c-4 -14 -5 -28 -3 -31 3 -2 8 8 11 23 4 14 5 28 3 31 -3
2 -8 -8 -11 -23z"/>
<path d="M8802 4020 c0 -14 2 -19 5 -12 2 6 2 18 0 25 -3 6 -5 1 -5 -13z"/>
<path d="M4032 4010 c0 -14 2 -19 5 -12 2 6 2 18 0 25 -3 6 -5 1 -5 -13z"/>
<path d="M4082 3995 c0 -16 2 -22 5 -12 2 9 2 23 0 30 -3 6 -5 -1 -5 -18z"/>
<path d="M9072 3990 c0 -14 2 -19 5 -12 2 6 2 18 0 25 -3 6 -5 1 -5 -13z"/>
<path d="M4002 3970 c0 -19 2 -27 5 -17 2 9 2 25 0 35 -3 9 -5 1 -5 -18z"/>
<path d="M4365 3960 c-4 -23 -5 -43 -2 -46 2 -3 7 14 11 37 4 23 5 44 2 46 -2
2 -7 -14 -11 -37z"/>
<path d="M8665 3970 c-4 -17 -5 -34 -2 -36 3 -3 8 9 12 26 4 17 5 34 2 36 -3
3 -8 -9 -12 -26z"/>
<path d="M8812 3970 c0 -14 2 -19 5 -12 2 6 2 18 0 25 -3 6 -5 1 -5 -13z"/>
<path d="M9052 3970 c0 -14 2 -19 5 -12 2 6 2 18 0 25 -3 6 -5 1 -5 -13z"/>
<path d="M4022 3945 c0 -16 2 -22 5 -12 2 9 2 23 0 30 -3 6 -5 -1 -5 -18z"/>
<path d="M4043 3930 c0 -25 2 -35 4 -22 2 12 2 32 0 45 -2 12 -4 2 -4 -23z"/>
<path d="M9082 3940 c0 -14 2 -19 5 -12 2 6 2 18 0 25 -3 6 -5 1 -5 -13z"/>
<path d="M3693 3915 c0 -22 2 -30 4 -17 2 12 2 30 0 40 -3 9 -5 -1 -4 -23z"/>
<path d="M4073 3915 c0 -22 2 -30 4 -17 2 12 2 30 0 40 -3 9 -5 -1 -4 -23z"/>
<path d="M8675 3920 c-4 -17 -5 -34 -2 -36 3 -3 8 9 12 26 4 17 5 34 2 36 -3
3 -8 -9 -12 -26z"/>
<path d="M8822 3915 c0 -16 2 -22 5 -12 2 9 2 23 0 30 -3 6 -5 -1 -5 -18z"/>
<path d="M9062 3910 c0 -19 2 -27 5 -17 2 9 2 25 0 35 -3 9 -5 1 -5 -18z"/>
<path d="M3993 3885 c0 -22 2 -30 4 -17 2 12 2 30 0 40 -3 9 -5 -1 -4 -23z"/>
<path d="M4013 3865 c0 -22 2 -30 4 -17 2 12 2 30 0 40 -3 9 -5 -1 -4 -23z"/>
<path d="M4352 3870 c0 -19 2 -27 5 -17 2 9 2 25 0 35 -3 9 -5 1 -5 -18z"/>
<path d="M8685 3855 c-3 -26 -4 -49 -2 -51 3 -3 8 16 12 41 3 26 4 49 2 51 -3
3 -8 -16 -12 -41z"/>
<path d="M9092 3875 c0 -16 2 -22 5 -12 2 9 2 23 0 30 -3 6 -5 -1 -5 -18z"/>
<path d="M8832 3850 c0 -19 2 -27 5 -17 2 9 2 25 0 35 -3 9 -5 1 -5 -18z"/>
<path d="M9073 3835 c0 -22 2 -30 4 -17 2 12 2 30 0 40 -3 9 -5 -1 -4 -23z"/>
<path d="M3683 3815 c0 -27 2 -38 4 -22 2 15 2 37 0 50 -2 12 -4 0 -4 -28z"/>
<path d="M4034 3675 c0 -104 2 -146 3 -92 2 54 2 139 0 190 -1 51 -3 7 -3 -98z"/>
<path d="M4063 3800 c0 -36 2 -50 4 -32 2 17 2 47 0 65 -2 17 -4 3 -4 -33z"/>
<path d="M8886 3795 c4 -33 7 -174 9 -313 2 -140 6 -256 10 -260 10 -10 -3
538 -14 588 -10 43 -10 43 -5 -15z"/>
<path d="M8863 3795 c0 -27 2 -38 4 -22 2 15 2 37 0 50 -2 12 -4 0 -4 -28z"/>
<path d="M9103 3800 c0 -25 2 -35 4 -22 2 12 2 32 0 45 -2 12 -4 2 -4 -23z"/>
<path d="M3983 3765 c0 -38 2 -53 4 -32 2 20 2 52 0 70 -2 17 -4 1 -4 -38z"/>
<path d="M4343 3790 c0 -25 2 -35 4 -22 2 12 2 32 0 45 -2 12 -4 2 -4 -23z"/>
<path d="M8695 3775 c-4 -31 -5 -58 -3 -61 3 -2 8 21 12 52 4 31 5 59 2 61 -2
3 -8 -21 -11 -52z"/>
<path d="M4003 3750 c0 -30 2 -43 4 -27 2 15 2 39 0 55 -2 15 -4 2 -4 -28z"/>
<path d="M8843 3760 c0 -25 2 -35 4 -22 2 12 2 32 0 45 -2 12 -4 2 -4 -23z"/>
<path d="M9083 3730 c0 -30 2 -43 4 -27 2 15 2 39 0 55 -2 15 -4 2 -4 -28z"/>
<path d="M8713 3710 c0 -25 2 -35 4 -22 2 12 2 32 0 45 -2 12 -4 2 -4 -23z"/>
<path d="M9113 3700 c0 -30 2 -43 4 -27 2 15 2 39 0 55 -2 15 -4 2 -4 -28z"/>
<path d="M3674 3590 c0 -80 2 -112 3 -72 2 39 2 105 0 145 -1 39 -3 7 -3 -73z"/>
<path d="M4334 3630 c0 -52 1 -74 3 -47 2 26 2 68 0 95 -2 26 -3 4 -3 -48z"/>
<path d="M8874 3580 c0 -74 1 -105 3 -67 2 37 2 97 0 135 -2 37 -3 6 -3 -68z"/>
<path d="M8853 3615 c0 -44 2 -61 4 -37 2 23 2 59 0 80 -2 20 -4 1 -4 -43z"/>
<path d="M4053 3625 c0 -22 2 -30 4 -17 2 12 2 30 0 40 -3 9 -5 -1 -4 -23z"/>
<path d="M8704 3510 c0 -85 2 -120 3 -77 2 42 2 112 0 155 -1 42 -3 7 -3 -78z"/>
<path d="M9094 3510 c0 -74 1 -105 3 -67 2 37 2 97 0 135 -2 37 -3 6 -3 -68z"/>
<path d="M9124 3480 c0 -80 2 -112 3 -72 2 39 2 105 0 145 -1 39 -3 7 -3 -73z"/>
<path d="M8724 3505 c0 -60 1 -84 3 -52 2 32 2 81 0 110 -2 29 -3 3 -3 -58z"/>
<path d="M3826 3425 c5 -160 12 -223 45 -404 15 -78 24 -109 30 -98 6 10 2 47
-11 99 -25 105 -49 278 -60 432 l-9 121 5 -150z"/>
<path d="M4333 3450 c0 -47 2 -66 4 -42 2 23 2 61 0 85 -2 23 -4 4 -4 -43z"/>
<path d="M4063 3460 c0 -30 2 -43 4 -27 2 15 2 39 0 55 -2 15 -4 2 -4 -28z"/>
<path d="M8847 3355 c-4 -77 -18 -198 -31 -270 -27 -138 -28 -181 -2 -68 42
187 63 373 49 438 -8 33 -11 15 -16 -100z"/>
<path d="M4043 3425 c0 -22 2 -30 4 -17 2 12 2 30 0 40 -3 9 -5 -1 -4 -23z"/>
<path d="M3683 3370 c0 -30 2 -43 4 -27 2 15 2 39 0 55 -2 15 -4 2 -4 -28z"/>
<path d="M4073 3355 c0 -22 2 -30 4 -17 2 12 2 30 0 40 -3 9 -5 -1 -4 -23z"/>
<path d="M4052 3340 c0 -19 2 -27 5 -17 2 9 2 25 0 35 -3 9 -5 1 -5 -18z"/>
<path d="M9083 3295 c0 -33 2 -45 4 -27 2 18 2 45 0 60 -2 15 -4 0 -4 -33z"/>
<path d="M4343 3305 c0 -22 2 -30 4 -17 2 12 2 30 0 40 -3 9 -5 -1 -4 -23z"/>
<path d="M8713 3300 c0 -25 2 -35 4 -22 2 12 2 32 0 45 -2 12 -4 2 -4 -23z"/>
<path d="M8692 3285 c-1 -16 3 -48 7 -70 11 -53 12 -5 2 55 -6 34 -9 37 -9 15z"/>
<path d="M3693 3260 c0 -25 2 -35 4 -22 2 12 2 32 0 45 -2 12 -4 2 -4 -23z"/>
<path d="M4082 3275 c0 -16 2 -22 5 -12 2 9 2 23 0 30 -3 6 -5 -1 -5 -18z"/>
<path d="M9113 3250 c0 -30 2 -43 4 -27 2 15 2 39 0 55 -2 15 -4 2 -4 -28z"/>
<path d="M4062 3270 c0 -14 2 -19 5 -12 2 6 2 18 0 25 -3 6 -5 1 -5 -13z"/>
<path d="M8882 3260 c0 -19 2 -27 5 -17 2 9 2 25 0 35 -3 9 -5 1 -5 -18z"/>
<path d="M4352 3225 c0 -16 2 -22 5 -12 2 9 2 23 0 30 -3 6 -5 -1 -5 -18z"/>
<path d="M4072 3210 c0 -14 2 -19 5 -12 2 6 2 18 0 25 -3 6 -5 1 -5 -13z"/>
<path d="M4092 3210 c0 -14 2 -19 5 -12 2 6 2 18 0 25 -3 6 -5 1 -5 -13z"/>
<path d="M9073 3195 c0 -22 2 -30 4 -17 2 12 2 30 0 40 -3 9 -5 -1 -4 -23z"/>
<path d="M8682 3195 c0 -16 2 -22 5 -12 2 9 2 23 0 30 -3 6 -5 -1 -5 -18z"/>
<path d="M3702 3180 c0 -19 2 -27 5 -17 2 9 2 25 0 35 -3 9 -5 1 -5 -18z"/>
<path d="M8872 3175 c0 -16 2 -22 5 -12 2 9 2 23 0 30 -3 6 -5 -1 -5 -18z"/>
<path d="M8892 3160 c0 -19 2 -27 5 -17 2 9 2 25 0 35 -3 9 -5 1 -5 -18z"/>
<path d="M4082 3160 c0 -14 2 -19 5 -12 2 6 2 18 0 25 -3 6 -5 1 -5 -13z"/>
<path d="M4362 3160 c0 -14 2 -19 5 -12 2 6 2 18 0 25 -3 6 -5 1 -5 -13z"/>
<path d="M9102 3150 c0 -19 2 -27 5 -17 2 9 2 25 0 35 -3 9 -5 1 -5 -18z"/>
<path d="M4096 3139 c-8 -42 0 -50 9 -9 4 17 5 34 2 36 -2 3 -7 -10 -11 -27z"/>
<path d="M8692 3140 c0 -14 2 -19 5 -12 2 6 2 18 0 25 -3 6 -5 1 -5 -13z"/>
<path d="M8672 3130 c0 -14 2 -19 5 -12 2 6 2 18 0 25 -3 6 -5 1 -5 -13z"/>
<path d="M9062 3120 c0 -19 2 -27 5 -17 2 9 2 25 0 35 -3 9 -5 1 -5 -18z"/>
<path d="M3712 3115 c0 -16 2 -22 5 -12 2 9 2 23 0 30 -3 6 -5 -1 -5 -18z"/>
<path d="M4372 3110 c0 -14 2 -19 5 -12 2 6 2 18 0 25 -3 6 -5 1 -5 -13z"/>
<path d="M8862 3110 c0 -14 2 -19 5 -12 2 6 2 18 0 25 -3 6 -5 1 -5 -13z"/>
<path d="M4106 3095 c-15 -60 197 -585 273 -675 11 -14 -4 20 -34 75 -62 116
-153 334 -186 450 -13 44 -26 81 -30 83 -4 2 -4 12 -1 24 4 15 2 19 -7 13 -10
-6 -12 0 -6 24 8 37 0 42 -9 6z"/>
<path d="M8633 3085 c0 -22 2 -30 4 -17 2 12 2 30 0 40 -3 9 -5 -1 -4 -23z"/>
<path d="M8882 3090 c0 -19 2 -27 5 -17 2 9 2 25 0 35 -3 9 -5 1 -5 -18z"/>
<path d="M8682 3080 c0 -14 2 -19 5 -12 2 6 2 18 0 25 -3 6 -5 1 -5 -13z"/>
<path d="M9092 3075 c0 -16 2 -22 5 -12 2 9 2 23 0 30 -3 6 -5 -1 -5 -18z"/>
<path d="M8661 3074 c0 -11 3 -14 6 -6 3 7 2 16 -1 19 -3 4 -6 -2 -5 -13z"/>
<path d="M3722 3060 c0 -14 2 -19 5 -12 2 6 2 18 0 25 -3 6 -5 1 -5 -13z"/>
<path d="M4381 3064 c0 -11 3 -14 6 -6 3 7 2 16 -1 19 -3 4 -6 -2 -5 -13z"/>
<path d="M8852 3060 c0 -14 2 -19 5 -12 2 6 2 18 0 25 -3 6 -5 1 -5 -13z"/>
<path d="M9052 3055 c0 -16 2 -22 5 -12 2 9 2 23 0 30 -3 6 -5 -1 -5 -18z"/>
<path d="M8671 3034 c0 -11 3 -14 6 -6 3 7 2 16 -1 19 -3 4 -6 -2 -5 -13z"/>
<path d="M8872 3030 c0 -14 2 -19 5 -12 2 6 2 18 0 25 -3 6 -5 1 -5 -13z"/>
<path d="M4391 3024 c0 -11 3 -14 6 -6 3 7 2 16 -1 19 -3 4 -6 -2 -5 -13z"/>
<path d="M8622 3015 c0 -16 2 -22 5 -12 2 9 2 23 0 30 -3 6 -5 -1 -5 -18z"/>
<path d="M8651 3024 c0 -11 3 -14 6 -6 3 7 2 16 -1 19 -3 4 -6 -2 -5 -13z"/>
<path d="M9082 3015 c0 -16 2 -22 5 -12 2 9 2 23 0 30 -3 6 -5 -1 -5 -18z"/>
<path d="M3732 3010 c0 -14 2 -19 5 -12 2 6 2 18 0 25 -3 6 -5 1 -5 -13z"/>
<path d="M8842 3010 c0 -14 2 -19 5 -12 2 6 2 18 0 25 -3 6 -5 1 -5 -13z"/>
<path d="M9042 3000 c0 -14 2 -19 5 -12 2 6 2 18 0 25 -3 6 -5 1 -5 -13z"/>
<path d="M4401 2984 c0 -11 3 -14 6 -6 3 7 2 16 -1 19 -3 4 -6 -2 -5 -13z"/>
<path d="M8641 2984 c0 -11 3 -14 6 -6 3 7 2 16 -1 19 -3 4 -6 -2 -5 -13z"/>
<path d="M8661 2984 c0 -11 3 -14 6 -6 3 7 2 16 -1 19 -3 4 -6 -2 -5 -13z"/>
<path d="M8862 2980 c0 -14 2 -19 5 -12 2 6 2 18 0 25 -3 6 -5 1 -5 -13z"/>
<path d="M3741 2972 c-1 -19 32 -148 36 -137 1 6 -6 42 -16 80 -11 39 -20 64
-20 57z"/>
<path d="M8612 2960 c0 -14 2 -19 5 -12 2 6 2 18 0 25 -3 6 -5 1 -5 -13z"/>
<path d="M8831 2964 c0 -11 3 -14 6 -6 3 7 2 16 -1 19 -3 4 -6 -2 -5 -13z"/>
<path d="M9072 2960 c0 -14 2 -19 5 -12 2 6 2 18 0 25 -3 6 -5 1 -5 -13z"/>
<path d="M9031 2954 c0 -11 3 -14 6 -6 3 7 2 16 -1 19 -3 4 -6 -2 -5 -13z"/>
<path d="M8631 2950 c0 -8 4 -24 9 -35 5 -13 9 -14 9 -5 0 8 -4 24 -9 35 -5
13 -9 14 -9 5z"/>
<path d="M8846 2914 c-4 -20 -5 -38 -3 -40 3 -3 8 11 11 32 4 20 5 38 3 40 -3
3 -8 -11 -11 -32z"/>
<path d="M8770 2894 c-22 -82 -94 -263 -147 -369 -28 -55 -48 -106 -45 -114 2
-8 0 -11 -5 -8 -6 4 -33 -31 -62 -78 -115 -188 -286 -387 -460 -535 -62 -52
-118 -97 -124 -99 -7 -2 30 40 82 95 122 129 270 317 316 404 16 31 -13 -7
-70 -90 -86 -125 -168 -223 -276 -331 -145 -144 -225 -204 -382 -285 -78 -40
-138 -74 -134 -74 4 0 35 14 68 31 34 17 63 28 66 26 4 -5 -94 -65 -164 -101
-18 -9 -33 -19 -33 -22 0 -22 432 258 580 376 170 136 335 307 451 470 87 122
91 126 85 108 -7 -25 1 -22 15 3 8 15 8 19 0 15 -16 -10 -13 7 5 30 13 16 15
16 10 2 -3 -10 -3 -18 0 -18 3 0 36 64 75 143 66 139 174 436 167 459 -3 7
-10 -10 -18 -38z m-209 -521 c-12 -20 -14 -14 -5 12 4 9 9 14 11 11 3 -2 0
-13 -6 -23z m-641 -687 c0 -3 -15 -15 -32 -27 l-33 -23 24 27 c22 24 41 35 41
23z m-295 -206 c-3 -5 -12 -10 -18 -10 -7 0 -6 4 3 10 19 12 23 12 15 0z"/>
<path d="M8821 2924 c0 -11 3 -14 6 -6 3 7 2 16 -1 19 -3 4 -6 -2 -5 -13z"/>
<path d="M4421 2924 c-1 -15 30 -106 35 -101 2 2 -5 28 -15 58 -11 30 -20 49
-20 43z"/>
<path d="M8602 2910 c0 -14 2 -19 5 -12 2 6 2 18 0 25 -3 6 -5 1 -5 -13z"/>
<path d="M9012 2878 c-7 -28 -11 -53 -8 -55 2 -2 9 19 16 47 7 28 10 53 8 55
-3 3 -10 -18 -16 -47z"/>
<path d="M9047 2858 c-10 -39 -16 -73 -13 -75 2 -2 11 28 21 67 10 39 15 73
13 75 -2 3 -12 -27 -21 -67z"/>
<path d="M3906 2905 c-3 -9 -6 -22 -5 -28 0 -7 5 -1 10 12 5 13 8 26 5 28 -2
2 -6 -3 -10 -12z"/>
<path d="M8801 2859 c-7 -22 -11 -43 -8 -45 2 -2 9 14 16 37 7 22 11 43 8 45
-2 2 -9 -14 -16 -37z"/>
<path d="M8602 2793 c-12 -37 -20 -69 -18 -71 2 -2 14 27 26 63 12 36 20 68
18 70 -2 3 -14 -26 -26 -62z"/>
<path d="M8826 2834 c-4 -14 -5 -28 -3 -31 3 -2 8 8 11 23 4 14 5 28 3 31 -3
2 -8 -8 -11 -23z"/>
<path d="M3926 2835 c-3 -9 -6 -22 -5 -28 0 -7 5 -1 10 12 5 13 8 26 5 28 -2
2 -6 -3 -10 -12z"/>
<path d="M3781 2815 c-1 -15 60 -197 65 -192 2 2 -12 48 -30 103 -19 54 -35
95 -35 89z"/>
<path d="M4526 2790 c3 -14 11 -32 16 -40 6 -10 7 -7 2 10 -3 14 -11 32 -16
40 -6 10 -7 7 -2 -10z"/>
<path d="M8981 2769 c-7 -22 -11 -43 -8 -45 2 -2 9 14 16 37 7 22 11 43 8 45
-2 2 -9 -14 -16 -37z"/>
<path d="M4470 2775 c0 -5 5 -17 10 -25 5 -8 10 -10 10 -5 0 6 -5 17 -10 25
-5 8 -10 11 -10 5z"/>
<path d="M9016 2744 c-4 -14 -5 -28 -3 -31 3 -2 8 8 11 23 4 14 5 28 3 31 -3
2 -8 -8 -11 -23z"/>
<path d="M8751 2709 c-6 -18 -9 -34 -7 -36 2 -2 9 10 15 28 6 18 9 34 7 36 -2
2 -9 -10 -15 -28z"/>
<path d="M4491 2725 c0 -5 6 -21 14 -35 8 -14 14 -20 14 -15 0 6 -6 21 -14 35
-8 14 -14 21 -14 15z"/>
<path d="M4551 2725 c0 -5 6 -21 14 -35 8 -14 14 -20 14 -15 0 6 -6 21 -14 35
-8 14 -14 21 -14 15z"/>
<path d="M8936 2634 c-9 -26 -14 -49 -12 -51 2 -2 11 17 20 43 9 26 14 49 12
51 -2 2 -11 -17 -20 -43z"/>
<path d="M3976 2650 c3 -14 11 -32 16 -40 6 -10 7 -7 2 10 -3 14 -11 32 -16
40 -6 10 -7 7 -2 -10z"/>
<path d="M4520 2656 c0 -10 70 -146 75 -146 3 0 -11 33 -31 73 -38 74 -44 85
-44 73z"/>
<path d="M4580 2656 c0 -10 80 -166 85 -166 5 0 -72 159 -81 169 -2 2 -4 1 -4
-3z"/>
<path d="M8717 2618 c-9 -23 -15 -43 -13 -45 2 -2 11 15 20 38 9 23 15 43 13
45 -2 2 -11 -15 -20 -38z"/>
<path d="M3856 2590 c3 -14 11 -32 16 -40 6 -10 7 -7 2 10 -3 14 -11 32 -16
40 -6 10 -7 7 -2 -10z"/>
<path d="M4001 2588 c-1 -12 31 -89 35 -85 3 2 -4 24 -15 48 -11 24 -20 41
-20 37z"/>
<path d="M8942 2523 c-12 -31 -20 -59 -18 -61 2 -2 14 22 25 54 12 31 20 58
18 61 -2 2 -14 -22 -25 -54z"/>
<path d="M8892 2518 c-12 -28 -20 -53 -18 -55 2 -2 13 19 25 48 12 28 21 53
19 55 -3 2 -14 -20 -26 -48z"/>
<path d="M8643 2457 c-29 -56 -66 -127 -83 -157 -17 -30 -22 -44 -11 -30 24
30 155 280 149 285 -2 2 -27 -42 -55 -98z"/>
<path d="M3880 2524 c0 -29 179 -366 254 -478 200 -299 480 -581 771 -776 100
-67 255 -156 255 -147 0 3 -35 24 -77 48 -362 197 -745 564 -978 934 -31 50
-95 166 -141 260 -46 93 -84 165 -84 159z"/>
<path d="M4625 2455 c149 -262 401 -527 670 -705 94 -62 293 -170 312 -170 4
0 -46 29 -113 64 -343 180 -629 442 -829 762 -63 99 -83 124 -40 49z"/>
<path d="M4040 2487 c0 -11 120 -247 125 -247 5 0 -112 239 -121 249 -2 2 -4
1 -4 -2z"/>
<path d="M8812 2345 c-28 -58 -50 -105 -47 -105 7 0 107 201 103 206 -2 2 -27
-44 -56 -101z"/>
<path d="M8897 2415 c-24 -50 -20 -58 4 -12 11 22 19 41 17 43 -3 2 -12 -12
-21 -31z"/>
<path d="M8837 2285 c-15 -30 -25 -55 -22 -55 7 0 57 101 53 106 -2 2 -16 -21
-31 -51z"/>
<path d="M4555 2275 c32 -52 106 -147 194 -249 238 -275 590 -514 974 -661 82
-31 154 -54 160 -51 7 2 3 5 -8 5 -17 1 -18 3 -5 11 11 8 7 9 -15 4 -24 -4
-27 -3 -15 6 12 9 9 10 -13 5 -21 -4 -27 -3 -21 6 5 9 2 10 -9 6 -9 -3 -17 -3
-19 2 -2 4 -39 20 -83 35 -138 48 -436 198 -422 213 3 2 31 -10 63 -27 71 -38
57 -27 -61 46 -139 86 -269 188 -394 311 -63 62 -116 111 -117 110 -2 -1 36
-45 84 -97 48 -52 71 -82 52 -68 -48 37 -207 216 -286 324 -71 95 -89 117 -59
69z m460 -486 c25 -28 22 -26 -22 10 -29 24 -56 48 -60 54 -12 19 51 -30 82
-64z m198 -134 c31 -21 55 -40 53 -43 -6 -6 -149 94 -172 121 -12 13 -5 10 21
-9 22 -17 66 -48 98 -69z"/>
<path d="M8447 2188 c-172 -254 -407 -486 -657 -651 -58 -38 -131 -82 -162
-98 -32 -16 -58 -32 -58 -34 0 -10 117 54 210 115 184 121 357 272 494 431
102 119 249 319 234 319 -2 0 -30 -37 -61 -82z"/>
<path d="M8724 2183 c-208 -360 -572 -720 -929 -922 -110 -62 -134 -78 -75
-50 230 109 559 377 766 623 107 127 291 396 271 396 -3 0 -18 -21 -33 -47z"/>
<path d="M8780 2180 c-11 -22 -18 -40 -15 -40 2 0 14 18 25 40 11 22 18 40 15
40 -2 0 -14 -18 -25 -40z"/>
<path d="M8740 2110 c-6 -11 -8 -20 -6 -20 3 0 10 9 16 20 6 11 8 20 6 20 -3
0 -10 -9 -16 -20z"/>
<path d="M8664 1993 c-228 -337 -573 -652 -918 -838 -47 -26 -86 -49 -86 -52
0 -19 308 171 424 261 231 179 510 484 630 687 34 57 9 28 -50 -58z"/>
<path d="M5640 1566 c14 -7 36 -16 50 -20 14 -3 7 3 -15 13 -45 22 -73 27 -35
7z"/>
<path d="M5690 1570 c8 -5 20 -10 25 -10 6 0 3 5 -5 10 -8 5 -19 10 -25 10 -5
0 -3 -5 5 -10z"/>
<path d="M5740 1550 c8 -5 20 -10 25 -10 6 0 3 5 -5 10 -8 5 -19 10 -25 10 -5
0 -3 -5 5 -10z"/>
<path d="M5400 1545 c0 -7 101 -57 106 -53 2 2 -21 16 -51 31 -30 15 -55 25
-55 22z"/>
<path d="M5730 1532 c8 -5 26 -13 40 -16 17 -5 20 -4 10 2 -8 5 -26 13 -40 16
-17 5 -20 4 -10 -2z"/>
<path d="M5830 1495 c19 -7 42 -13 50 -13 8 0 -1 6 -20 13 -19 7 -42 13 -50
13 -8 0 1 -6 20 -13z"/>
<path d="M5550 1470 c19 -11 40 -19 45 -19 6 0 -6 8 -25 19 -19 11 -39 19 -45
19 -5 0 6 -8 25 -19z"/>
<path d="M5938 1483 c7 -3 16 -2 19 1 4 3 -2 6 -13 5 -11 0 -14 -3 -6 -6z"/>
<path d="M5978 1473 c7 -3 16 -2 19 1 4 3 -2 6 -13 5 -11 0 -14 -3 -6 -6z"/>
<path d="M5995 1460 c-13 -5 -14 -9 -5 -9 8 0 24 4 35 9 13 5 14 9 5 9 -8 0
-24 -4 -35 -9z"/>
<path d="M6035 1449 c-16 -7 -13 -8 13 -4 18 2 31 1 28 -4 -3 -5 38 -15 92
-22 114 -16 530 -17 607 -1 43 9 37 9 -40 4 -210 -16 -495 -2 -657 32 -13 3
-32 1 -43 -5z"/>
<path d="M5620 1442 c8 -5 26 -13 40 -16 17 -5 20 -4 10 2 -8 5 -26 13 -40 16
-17 5 -20 4 -10 -2z"/>
<path d="M5690 1417 c0 -6 120 -47 134 -46 6 0 -11 8 -39 18 -76 27 -95 33
-95 28z"/>
<path d="M7450 1350 c-30 -16 -50 -29 -45 -29 6 0 35 13 65 29 30 16 51 29 45
29 -5 0 -35 -13 -65 -29z"/>
<path d="M5855 1360 c11 -5 27 -9 35 -9 9 0 8 4 -5 9 -11 5 -27 9 -35 9 -9 0
-8 -4 5 -9z"/>
<path d="M5918 1343 c7 -3 16 -2 19 1 4 3 -2 6 -13 5 -11 0 -14 -3 -6 -6z"/>
<path d="M5970 1330 c14 -4 36 -8 50 -8 22 0 22 1 -5 8 -16 4 -39 8 -50 8 -16
0 -15 -2 5 -8z"/>
<path d="M6908 1323 c7 -3 16 -2 19 1 4 3 -2 6 -13 5 -11 0 -14 -3 -6 -6z"/>
<path d="M5938 1313 c6 -2 18 -2 25 0 6 3 1 5 -13 5 -14 0 -19 -2 -12 -5z"/>
<path d="M6058 1313 c6 -2 18 -2 25 0 6 3 1 5 -13 5 -14 0 -19 -2 -12 -5z"/>
<path d="M6853 1313 c9 -2 23 -2 30 0 6 3 -1 5 -18 5 -16 0 -22 -2 -12 -5z"/>
<path d="M5988 1303 c7 -3 16 -2 19 1 4 3 -2 6 -13 5 -11 0 -14 -3 -6 -6z"/>
<path d="M6113 1303 c9 -2 25 -2 35 0 9 3 1 5 -18 5 -19 0 -27 -2 -17 -5z"/>
<path d="M6783 1303 c9 -2 25 -2 35 0 9 3 1 5 -18 5 -19 0 -27 -2 -17 -5z"/>
<path d="M5938 1293 c7 -3 16 -2 19 1 4 3 -2 6 -13 5 -11 0 -14 -3 -6 -6z"/>
<path d="M6033 1293 c9 -2 23 -2 30 0 6 3 -1 5 -18 5 -16 0 -22 -2 -12 -5z"/>
<path d="M6188 1293 c12 -2 32 -2 45 0 12 2 2 4 -23 4 -25 0 -35 -2 -22 -4z"/>
<path d="M6698 1293 c12 -2 32 -2 45 0 12 2 2 4 -23 4 -25 0 -35 -2 -22 -4z"/>
<path d="M5978 1283 c7 -3 16 -2 19 1 4 3 -2 6 -13 5 -11 0 -14 -3 -6 -6z"/>
<path d="M6093 1283 c9 -2 23 -2 30 0 6 3 -1 5 -18 5 -16 0 -22 -2 -12 -5z"/>
<path d="M6318 1283 c23 -2 61 -2 85 0 23 2 4 4 -43 4 -47 0 -66 -2 -42 -4z"/>
<path d="M6543 1283 c20 -2 54 -2 75 0 20 2 3 4 -38 4 -41 0 -58 -2 -37 -4z"/>
<path d="M6018 1273 c6 -2 18 -2 25 0 6 3 1 5 -13 5 -14 0 -19 -2 -12 -5z"/>
<path d="M6158 1273 c12 -2 30 -2 40 0 9 3 -1 5 -23 4 -22 0 -30 -2 -17 -4z"/>
<path d="M6068 1263 c6 -2 18 -2 25 0 6 3 1 5 -13 5 -14 0 -19 -2 -12 -5z"/>
<path d="M6258 1263 c18 -2 45 -2 60 0 15 2 0 4 -33 4 -33 0 -45 -2 -27 -4z"/>
<path d="M6417 1253 c18 -2 50 -2 70 0 21 2 7 4 -32 4 -38 0 -55 -2 -38 -4z"/>
<path d="M7539 1131 c-31 -15 -74 -35 -95 -44 -22 -9 -28 -14 -14 -11 30 7
190 82 175 82 -5 0 -35 -12 -66 -27z"/>
<path d="M5410 1116 c25 -13 56 -26 70 -30 14 -4 -4 7 -39 24 -75 35 -96 39
-31 6z"/>
<path d="M7570 1065 c-36 -19 -60 -34 -55 -34 6 0 39 15 75 34 36 19 61 34 55
34 -5 0 -39 -15 -75 -34z"/>
<path d="M5280 1060 c30 -16 60 -29 65 -29 6 0 -15 13 -45 29 -30 16 -59 29
-65 29 -5 0 15 -13 45 -29z"/>
<path d="M5520 1072 c8 -5 26 -13 40 -16 17 -5 20 -4 10 2 -8 5 -26 13 -40 16
-17 5 -20 4 -10 -2z"/>
<path d="M7355 1055 c-25 -12 -26 -14 -5 -9 28 7 60 23 45 23 -5 0 -23 -6 -40
-14z"/>
<path d="M5380 1016 c14 -7 36 -16 50 -20 14 -3 7 3 -15 13 -45 22 -73 27 -35
7z"/>
<path d="M7445 1009 c-22 -10 -29 -16 -15 -13 28 7 80 33 65 33 -5 0 -28 -9
-50 -20z"/>
<path d="M7215 1010 c-13 -5 -14 -9 -5 -9 8 0 24 4 35 9 13 5 14 9 5 9 -8 0
-24 -4 -35 -9z"/>
<path d="M5725 1000 c11 -5 27 -9 35 -9 9 0 8 4 -5 9 -11 5 -27 9 -35 9 -9 0
-8 -4 5 -9z"/>
<path d="M5485 976 c17 -7 41 -16 55 -20 20 -5 19 -3 -5 8 -16 7 -41 16 -55
20 -20 5 -19 3 5 -8z"/>
<path d="M5788 983 c7 -3 16 -2 19 1 4 3 -2 6 -13 5 -11 0 -14 -3 -6 -6z"/>
<path d="M7138 983 c7 -3 16 -2 19 1 4 3 -2 6 -13 5 -11 0 -14 -3 -6 -6z"/>
<path d="M7370 980 c-8 -5 -10 -10 -5 -10 6 0 17 5 25 10 8 5 11 10 5 10 -5 0
-17 -5 -25 -10z"/>
<path d="M5828 973 c7 -3 16 -2 19 1 4 3 -2 6 -13 5 -11 0 -14 -3 -6 -6z"/>
<path d="M7098 973 c7 -3 16 -2 19 1 4 3 -2 6 -13 5 -11 0 -14 -3 -6 -6z"/>
<path d="M5868 963 c7 -3 16 -2 19 1 4 3 -2 6 -13 5 -11 0 -14 -3 -6 -6z"/>
<path d="M7058 963 c7 -3 16 -2 19 1 4 3 -2 6 -13 5 -11 0 -14 -3 -6 -6z"/>
<path d="M5908 953 c6 -2 18 -2 25 0 6 3 1 5 -13 5 -14 0 -19 -2 -12 -5z"/>
<path d="M7008 953 c6 -2 18 -2 25 0 6 3 1 5 -13 5 -14 0 -19 -2 -12 -5z"/>
<path d="M5600 935 c19 -7 42 -13 50 -13 8 0 -1 6 -20 13 -19 7 -42 13 -50 13
-8 0 1 -6 20 -13z"/>
<path d="M5958 943 c6 -2 18 -2 25 0 6 3 1 5 -13 5 -14 0 -19 -2 -12 -5z"/>
<path d="M6958 943 c6 -2 18 -2 25 0 6 3 1 5 -13 5 -14 0 -19 -2 -12 -5z"/>
<path d="M6013 933 c9 -2 23 -2 30 0 6 3 -1 5 -18 5 -16 0 -22 -2 -12 -5z"/>
<path d="M6903 933 c9 -2 23 -2 30 0 6 3 -1 5 -18 5 -16 0 -22 -2 -12 -5z"/>
<path d="M6073 923 c9 -2 25 -2 35 0 9 3 1 5 -18 5 -19 0 -27 -2 -17 -5z"/>
<path d="M6833 923 c9 -2 25 -2 35 0 9 3 1 5 -18 5 -19 0 -27 -2 -17 -5z"/>
<path d="M6148 913 c12 -2 32 -2 45 0 12 2 2 4 -23 4 -25 0 -35 -2 -22 -4z"/>
<path d="M6748 913 c12 -2 30 -2 40 0 9 3 -1 5 -23 4 -22 0 -30 -2 -17 -4z"/>
<path d="M7155 910 c-13 -5 -14 -9 -5 -9 8 0 24 4 35 9 13 5 14 9 5 9 -8 0
-24 -4 -35 -9z"/>
<path d="M5708 903 c7 -3 16 -2 19 1 4 3 -2 6 -13 5 -11 0 -14 -3 -6 -6z"/>
<path d="M6257 903 c18 -2 50 -2 70 0 21 2 7 4 -32 4 -38 0 -55 -2 -38 -4z"/>
<path d="M6607 903 c18 -2 50 -2 70 0 21 2 7 4 -32 4 -38 0 -55 -2 -38 -4z"/>
<path d="M5755 890 c11 -5 29 -8 40 -8 16 0 15 2 -5 8 -34 11 -60 11 -35 0z"/>
<path d="M6448 893 c18 -2 45 -2 60 0 15 2 0 4 -33 4 -33 0 -45 -2 -27 -4z"/>
<path d="M7108 893 c7 -3 16 -2 19 1 4 3 -2 6 -13 5 -11 0 -14 -3 -6 -6z"/>
<path d="M7068 883 c7 -3 16 -2 19 1 4 3 -2 6 -13 5 -11 0 -14 -3 -6 -6z"/>
<path d="M5828 873 c7 -3 16 -2 19 1 4 3 -2 6 -13 5 -11 0 -14 -3 -6 -6z"/>
<path d="M7018 873 c6 -2 18 -2 25 0 6 3 1 5 -13 5 -14 0 -19 -2 -12 -5z"/>
<path d="M5868 863 c6 -2 18 -2 25 0 6 3 1 5 -13 5 -14 0 -19 -2 -12 -5z"/>
<path d="M6968 863 c6 -2 18 -2 25 0 6 3 1 5 -13 5 -14 0 -19 -2 -12 -5z"/>
<path d="M5918 853 c6 -2 18 -2 25 0 6 3 1 5 -13 5 -14 0 -19 -2 -12 -5z"/>
<path d="M6918 853 c6 -2 18 -2 25 0 6 3 1 5 -13 5 -14 0 -19 -2 -12 -5z"/>
<path d="M5973 843 c9 -2 23 -2 30 0 6 3 -1 5 -18 5 -16 0 -22 -2 -12 -5z"/>
<path d="M6863 843 c9 -2 23 -2 30 0 6 3 -1 5 -18 5 -16 0 -22 -2 -12 -5z"/>
<path d="M6043 833 c9 -2 25 -2 35 0 9 3 1 5 -18 5 -19 0 -27 -2 -17 -5z"/>
<path d="M6783 833 c9 -2 25 -2 35 0 9 3 1 5 -18 5 -19 0 -27 -2 -17 -5z"/>
<path d="M6118 823 c12 -2 32 -2 45 0 12 2 2 4 -23 4 -25 0 -35 -2 -22 -4z"/>
<path d="M6698 823 c12 -2 32 -2 45 0 12 2 2 4 -23 4 -25 0 -35 -2 -22 -4z"/>
<path d="M6248 813 c23 -2 59 -2 80 0 20 2 1 4 -43 4 -44 0 -61 -2 -37 -4z"/>
<path d="M6547 813 c18 -2 50 -2 70 0 21 2 7 4 -32 4 -38 0 -55 -2 -38 -4z"/>
<path d="M10103 7673 c9 -2 25 -2 35 0 9 3 1 5 -18 5 -19 0 -27 -2 -17 -5z"/>
<path d="M10691 7652 c55 -36 58 -40 163 -191 47 -69 86 -121 86 -117 0 8
-116 178 -164 240 -30 40 -101 96 -119 96 -6 0 9 -13 34 -28z"/>
<path d="M10173 7663 c9 -2 25 -2 35 0 9 3 1 5 -18 5 -19 0 -27 -2 -17 -5z"/>
<path d="M10253 7653 c9 -2 25 -2 35 0 9 3 1 5 -18 5 -19 0 -27 -2 -17 -5z"/>
<path d="M10323 7643 c9 -2 23 -2 30 0 6 3 -1 5 -18 5 -16 0 -22 -2 -12 -5z"/>
<path d="M10393 7633 c9 -2 25 -2 35 0 9 3 1 5 -18 5 -19 0 -27 -2 -17 -5z"/>
<path d="M10463 7623 c9 -2 23 -2 30 0 6 3 -1 5 -18 5 -16 0 -22 -2 -12 -5z"/>
<path d="M9370 7580 c8 -5 24 -10 34 -10 26 0 18 6 -19 14 -22 5 -26 4 -15 -4z"/>
<path d="M9287 7540 c-54 -48 -74 -100 -81 -210 -5 -70 -5 -72 5 -25 5 28 14
70 20 95 5 25 11 54 13 65 2 18 14 22 26 8 3 -4 1 -4 -5 -1 -6 4 -11 -8 -12
-25 l-2 -32 13 30 c29 68 101 104 211 106 33 1 89 5 125 9 l65 7 -75 1 c-158
3 -320 -38 -312 -78 3 -12 1 -13 -10 -2 -15 16 3 33 65 62 29 13 34 19 22 24
-9 3 -18 6 -19 6 -2 0 -24 -18 -49 -40z"/>
<path d="M9728 7553 c12 -2 30 -2 40 0 9 3 -1 5 -23 4 -22 0 -30 -2 -17 -4z"/>
<path d="M9583 7543 c9 -2 25 -2 35 0 9 3 1 5 -18 5 -19 0 -27 -2 -17 -5z"/>
<path d="M9680 7532 c23 -4 24 -5 5 -13 -12 -5 -3 -6 25 -2 71 9 75 18 7 18
-34 1 -51 -1 -37 -3z"/>
<path d="M9623 7503 c9 -2 23 -2 30 0 6 3 -1 5 -18 5 -16 0 -22 -2 -12 -5z"/>
<path d="M9242 7380 c0 -19 2 -27 5 -17 2 9 2 25 0 35 -3 9 -5 1 -5 -18z"/>
<path d="M9231 7240 c1 -19 7 -57 14 -85 l12 -50 -5 70 c-5 75 -22 127 -21 65z"/>
<path d="M11858 6923 c138 -2 366 -2 505 0 138 1 25 2 -253 2 -278 0 -391 -1
-252 -2z"/>
<path d="M12645 6903 c42 -22 64 -43 84 -78 14 -26 17 -81 21 -385 l6 -355 2
343 c2 368 0 386 -51 440 -22 24 -69 52 -84 52 -4 -1 6 -8 22 -17z"/>
<path d="M12641 6867 c18 -12 44 -38 56 -56 13 -19 23 -30 23 -25 0 28 -76
104 -104 104 -5 0 6 -10 25 -23z"/>
<path d="M2408 6853 c133 -2 351 -2 485 0 133 1 24 2 -243 2 -267 0 -376 -1
-242 -2z"/>
<path d="M12725 5665 c0 -610 1 -859 2 -552 2 307 2 807 0 1110 -1 304 -2 53
-2 -558z"/>
<path d="M36 4475 c3 -726 9 -1970 15 -2764 11 -1589 5 -1481 72 -1521 31 -19
54 -20 722 -18 l690 1 -680 9 c-481 5 -688 11 -709 20 -43 17 -66 63 -64 128
l1 55 7 -60 c8 -76 16 -92 50 -110 24 -13 154 -13 955 -5 510 5 930 12 934 16
3 4 -300 4 -674 0 -374 -3 -796 -7 -938 -8 l-257 -2 -28 27 c-27 27 -27 29
-34 200 -11 272 -26 1348 -39 2667 -6 668 -15 1546 -19 1950 -7 594 -7 482 -4
-585z"/>
<path d="M12765 5115 c0 -308 1 -435 2 -283 2 152 2 404 0 560 -1 156 -2 31
-2 -277z"/>
<path d="M12775 3830 c0 -272 1 -384 2 -247 2 136 2 358 0 495 -1 136 -2 24
-2 -248z"/>
<path d="M12732 1943 c-1 -925 -5 -1690 -8 -1700 -5 -16 -4 -16 5 -1 8 11 10
509 8 1700 l-2 1683 -3 -1682z"/>
<path d="M12655 2930 c0 -250 1 -353 2 -228 2 126 2 330 0 455 -1 126 -2 23
-2 -227z"/>
<path d="M97 2130 c3 -602 9 -1158 13 -1235 8 -152 2 811 -10 1745 -6 414 -7
264 -3 -510z"/>
<path d="M12785 2480 c0 -300 1 -422 2 -272 2 149 2 395 0 545 -1 149 -2 27
-2 -273z"/>
<path d="M393 2840 c0 -25 2 -35 4 -22 2 12 2 32 0 45 -2 12 -4 2 -4 -23z"/>
<path d="M383 2740 c0 -25 2 -35 4 -22 2 12 2 32 0 45 -2 12 -4 2 -4 -23z"/>
<path d="M373 2645 c0 -22 2 -30 4 -17 2 12 2 30 0 40 -3 9 -5 -1 -4 -23z"/>
<path d="M363 2540 c0 -25 2 -35 4 -22 2 12 2 32 0 45 -2 12 -4 2 -4 -23z"/>
<path d="M267 1602 c-48 -482 -87 -886 -86 -897 2 -29 10 41 94 860 41 407 79
748 85 757 12 20 13 127 2 145 -4 6 -47 -383 -95 -865z"/>
<path d="M357 2143 c-4 -76 -10 -156 -13 -178 -4 -22 -3 -37 1 -33 11 11 35
320 26 336 -4 8 -11 -48 -14 -125z"/>
<path d="M333 1860 c0 -25 2 -35 4 -22 2 12 2 32 0 45 -2 12 -4 2 -4 -23z"/>
<path d="M323 1770 c0 -25 2 -35 4 -22 2 12 2 32 0 45 -2 12 -4 2 -4 -23z"/>
<path d="M313 1675 c0 -22 2 -30 4 -17 2 12 2 30 0 40 -3 9 -5 -1 -4 -23z"/>
<path d="M12795 955 c0 -385 1 -541 2 -347 2 195 2 510 0 700 -1 191 -2 32 -2
-353z"/>
<path d="M303 1580 c0 -25 2 -35 4 -22 2 12 2 32 0 45 -2 12 -4 2 -4 -23z"/>
<path d="M332 1525 c0 -16 2 -22 5 -12 2 9 2 23 0 30 -3 6 -5 -1 -5 -18z"/>
<path d="M293 1485 c0 -22 2 -30 4 -17 2 12 2 30 0 40 -3 9 -5 -1 -4 -23z"/>
<path d="M322 1465 c0 -16 2 -22 5 -12 2 9 2 23 0 30 -3 6 -5 -1 -5 -18z"/>
<path d="M283 1390 c0 -25 2 -35 4 -22 2 12 2 32 0 45 -2 12 -4 2 -4 -23z"/>
<path d="M312 1395 c0 -16 2 -22 5 -12 2 9 2 23 0 30 -3 6 -5 -1 -5 -18z"/>
<path d="M302 1335 c0 -16 2 -22 5 -12 2 9 2 23 0 30 -3 6 -5 -1 -5 -18z"/>
<path d="M273 1295 c0 -22 2 -30 4 -17 2 12 2 30 0 40 -3 9 -5 -1 -4 -23z"/>
<path d="M292 1265 c0 -16 2 -22 5 -12 2 9 2 23 0 30 -3 6 -5 -1 -5 -18z"/>
<path d="M262 1210 c0 -19 2 -27 5 -17 2 9 2 25 0 35 -3 9 -5 1 -5 -18z"/>
<path d="M282 1205 c0 -16 2 -22 5 -12 2 9 2 23 0 30 -3 6 -5 -1 -5 -18z"/>
<path d="M272 1140 c0 -14 2 -19 5 -12 2 6 2 18 0 25 -3 6 -5 1 -5 -13z"/>
<path d="M242 1018 c-7 -67 -16 -141 -19 -163 -3 -22 -3 -37 1 -34 12 12 47
272 39 296 -6 18 -12 -9 -21 -99z"/>
<path d="M173 640 c0 -25 2 -35 4 -22 2 12 2 32 0 45 -2 12 -4 2 -4 -23z"/>
<path d="M163 545 c0 -27 2 -38 4 -22 2 15 2 37 0 50 -2 12 -4 0 -4 -28z"/>
<path d="M152 460 c0 -14 2 -19 5 -12 2 6 2 18 0 25 -3 6 -5 1 -5 -13z"/>
<path d="M4413 443 c636 -2 1678 -2 2315 0 636 1 115 2 -1158 2 -1273 0 -1794
-1 -1157 -2z"/>
<path d="M123 380 c0 -36 2 -50 4 -32 2 17 2 47 0 65 -2 17 -4 3 -4 -33z"/>
<path d="M12613 350 c0 -36 2 -50 4 -32 2 17 2 47 0 65 -2 17 -4 3 -4 -33z"/>
<path d="M7625 360 c127 -4 1036 -10 2020 -12 985 -2 1709 -1 1610 3 -99 3
-1008 9 -2020 12 -1012 3 -1736 2 -1610 -3z"/>
<path d="M11185 329 c-148 -3 9 -4 350 -1 341 2 622 6 624 8 6 5 -640 1 -974
-7z"/>
<path d="M121 289 c-1 -8 9 -25 22 -37 23 -22 26 -22 348 -19 l324 2 -326 3
c-296 2 -327 4 -341 20 -9 9 -18 24 -21 32 -5 13 -6 13 -6 -1z"/>
<path d="M5475 292 c-154 -1 -786 -10 -1405 -18 -619 -9 -1345 -16 -1615 -16
l-490 0 400 -8 c229 -5 667 -5 1025 1 344 5 1100 16 1680 25 580 8 1056 17
1059 19 2 3 -81 4 -185 3 -104 -2 -315 -4 -469 -6z"/>
<path d="M12586 265 c-11 -8 -15 -15 -9 -15 6 0 16 7 23 15 16 19 11 19 -14 0z"/>
<path d="M12601 250 c-13 -11 -19 -20 -14 -20 6 0 18 9 28 20 23 25 17 25 -14
0z"/>
<path d="M1197 243 c94 -2 252 -2 350 0 98 1 21 2 -172 2 -192 1 -273 -1 -178
-2z"/>
<path d="M10075 238 c-630 -11 -937 -20 -931 -25 5 -6 1358 16 1616 26 l195 8
-215 0 c-118 0 -417 -4 -665 -9z"/>
<path d="M11850 240 l-285 -5 300 -2 c165 0 363 3 440 6 l140 8 -155 -1 c-85
0 -283 -3 -440 -6z"/>
<path d="M12766 205 c-22 -54 -75 -101 -136 -120 -25 -7 -37 -14 -27 -14 27
-1 78 23 115 54 33 28 76 99 70 116 -2 5 -11 -12 -22 -36z"/>
<path d="M2132 233 c37 -2 100 -2 140 0 40 1 10 3 -67 3 -77 0 -110 -1 -73 -3z"/>
<path d="M6113 233 c438 -2 1156 -2 1595 0 438 1 79 2 -798 2 -877 0 -1236 -1
-797 -2z"/>
<path d="M2591 219 c-311 -5 -574 -10 -585 -12 -21 -4 686 -1 2374 13 l915 7
-1070 0 c-588 0 -1324 -4 -1634 -8z"/>
<path d="M10710 220 c-52 -4 101 -4 340 -2 239 3 437 6 439 8 7 6 -676 1 -779
-6z"/>
<path d="M12428 223 c12 -2 30 -2 40 0 9 3 -1 5 -23 4 -22 0 -30 -2 -17 -4z"/>
<path d="M12697 196 c-9 -13 -35 -33 -59 -45 -24 -11 -36 -21 -27 -21 22 0 78
40 97 68 8 12 12 22 9 22 -2 0 -12 -11 -20 -24z"/>
<path d="M8743 203 c64 -2 170 -2 235 0 64 1 11 3 -118 3 -129 0 -182 -2 -117
-3z"/>
<path d="M10193 203 c59 -2 154 -2 210 0 56 1 8 3 -108 3 -115 0 -161 -2 -102
-3z"/>
<path d="M962 193 c92 -2 245 -2 340 0 95 1 20 3 -167 3 -187 0 -265 -2 -173
-3z"/>
<path d="M8283 193 c59 -2 155 -2 215 0 59 1 10 3 -108 3 -118 0 -167 -2 -107
-3z"/>
<path d="M9673 193 c59 -2 155 -2 215 0 59 1 10 3 -108 3 -118 0 -167 -2 -107
-3z"/>
<path d="M7823 183 c53 -2 141 -2 195 0 53 1 9 3 -98 3 -107 0 -151 -2 -97 -3z"/>
<path d="M10378 123 c409 -2 1075 -2 1480 0 405 1 71 2 -743 2 -814 0 -1146
-1 -737 -2z"/>
<path d="M11053 63 c269 -2 705 -2 970 0 265 1 46 2 -488 2 -533 0 -750 -1
-482 -2z"/>
<path d="M9088 53 c189 -2 495 -2 680 0 185 1 31 2 -343 2 -374 0 -526 -1
-337 -2z"/>
<path d="M7558 43 c167 -2 437 -2 600 0 163 1 27 2 -303 2 -330 0 -464 -1
-297 -2z"/>
<path d="M6047 33 c155 -2 411 -2 570 0 158 1 32 2 -282 2 -313 0 -443 -1
-288 -2z"/>
<path d="M4647 23 c155 -2 411 -2 570 0 158 1 32 2 -282 2 -313 0 -443 -1
-288 -2z"/>
<path d="M3127 13 c161 -2 425 -2 585 0 161 1 30 2 -292 2 -322 0 -453 -1
-293 -2z"/>
<path d="M2288 3 c57 -2 147 -2 200 0 53 1 7 3 -103 3 -110 0 -154 -2 -97 -3z"/>
</g>
</svg>
