<?xml version="1.0" standalone="no"?>
<!DOCTYPE svg PUBLIC "-//W3C//DTD SVG 20010904//EN"
 "http://www.w3.org/TR/2001/REC-SVG-20010904/DTD/svg10.dtd">
<svg version="1.0" xmlns="http://www.w3.org/2000/svg"
 width="1280.000000pt" height="766.000000pt" viewBox="0 0 1280.000000 766.000000"
 preserveAspectRatio="xMidYMid meet">
<metadata>
Created by potrace 1.15, written by Peter Selinger 2001-2017
</metadata>
<g transform="translate(0.000000,766.000000) scale(0.100000,-0.100000)"
fill="#ffeb3b" stroke="none">
<path d="M1635 7646 c-211 -34 -353 -119 -473 -281 -87 -118 -174 -319 -232
-540 -18 -66 -33 -121 -34 -123 -2 -1 -70 5 -152 13 -82 8 -208 15 -280 16
-177 1 -259 -22 -289 -80 -36 -71 -103 -1421 -157 -3186 -16 -547 -17 -1972 0
-2240 29 -465 52 -595 128 -701 123 -174 324 -278 574 -298 65 -6 419 -22 890
-41 229 -9 1227 -44 1580 -55 184 -5 556 -17 825 -25 270 -8 571 -17 670 -20
1249 -39 3214 -74 4550 -81 2018 -12 3123 33 3323 135 51 26 144 126 176 189
60 119 59 102 64 882 4 721 -10 2076 -28 2685 -55 1867 -154 2819 -310 2960
-22 19 -35 20 -479 18 -426 -2 -740 -8 -1716 -33 -558 -14 -1611 -44 -2105
-60 -173 -6 -601 -19 -950 -30 -970 -30 -1930 -62 -2605 -85 -231 -8 -438 -15
-461 -15 l-40 0 -28 126 c-94 430 -179 606 -337 701 -57 34 -191 73 -249 72
-23 0 -5 -7 51 -18 209 -45 316 -152 379 -383 17 -62 88 -399 107 -506 4 -22
13 -36 27 -42 20 -7 178 -22 376 -35 681 -44 3563 -131 7140 -216 261 -6 477
-13 479 -15 3 -3 -8 -411 -39 -1484 -5 -179 -14 -485 -20 -680 -13 -452 -28
-954 -40 -1380 -5 -184 -14 -497 -20 -695 -6 -198 -15 -502 -20 -675 -6 -173
-10 -345 -10 -382 l0 -68 -2767 0 c-1664 0 -2854 -4 -2983 -10 -118 -5 -453
-19 -745 -30 -291 -11 -768 -29 -1060 -40 -582 -22 -1515 -52 -2175 -71 -599
-18 -1488 -18 -1517 -1 -118 67 -199 730 -243 1987 -20 558 -29 1230 -36 2459
l-7 1238 179 -7 c266 -10 439 15 483 70 10 14 33 82 50 152 122 492 233 699
425 793 136 66 307 78 851 56 215 -9 509 -15 655 -15 l265 2 -208 13 c-115 7
-381 30 -590 49 -434 41 -719 52 -842 31z"/>
<path d="M6305 5803 c-677 -41 -1303 -366 -1744 -907 -479 -585 -654 -1139
-530 -1676 62 -271 214 -617 386 -880 203 -310 462 -573 753 -762 283 -185
581 -301 925 -360 175 -30 523 -32 690 -5 335 55 615 163 877 337 534 354 873
907 1004 1639 28 156 31 230 4 96 -106 -528 -308 -946 -610 -1259 -276 -286
-587 -456 -990 -541 -103 -22 -160 -28 -331 -32 -306 -8 -503 21 -779 113
-640 213 -1119 699 -1241 1256 -45 208 -44 304 12 1053 25 338 31 376 79 500
158 402 481 749 886 954 336 169 695 242 1089 219 386 -22 788 -178 1090 -423
424 -344 686 -833 804 -1500 16 -91 12 6 -4 117 -115 762 -466 1348 -1025
1711 -387 251 -878 379 -1345 350z"/>
</g>
</svg>
