<?xml version="1.0" encoding="UTF-8" standalone="no"?>
<svg width="840px" height="600px" viewBox="0 0 840 600" version="1.1" xmlns="http://www.w3.org/2000/svg" xmlns:xlink="http://www.w3.org/1999/xlink">
    <!-- Generator: Sketch 39.1 (31720) - http://www.bohemiancoding.com/sketch -->
    <title>gb-united-kingdom-flag</title>
    <desc>Created with Sketch.</desc>
    <defs>
        <rect id="path-1" x="0" y="0" width="840" height="600" rx="60"></rect>
        <polygon id="path-3" points="1199.372 599.76 0 599.76 0 299.88 0 0 1199.372 0 1199.372 599.76"></polygon>
        <polygon id="path-5" points="0 599.76 1200 599.76 1200 0 0 0"></polygon>
    </defs>
    <g id="Working" stroke="none" stroke-width="1" fill="none" fill-rule="evenodd">
        <g id="GoPro-EMEA_APAC-Flags" transform="translate(-1140.000000, -1700.000000)">
            <g id="gb-united-kingdom-flag" transform="translate(1140.000000, 1700.000000)">
                <mask id="mask-2" fill="white">
                    <use xlink:href="#path-1"></use>
                </mask>
                <use id="CC-BG-Copy-14" fill="#FFFFFF" xlink:href="#path-1"></use>
                <g id="Group-43" mask="url(#mask-2)">
                    <g transform="translate(-180.000000, 0.000000)">
                        <g id="Group-7" stroke-width="1" fill="none">
                            <mask id="mask-4" fill="white">
                                <use xlink:href="#path-3"></use>
                            </mask>
                            <g id="Clip-2"></g>
                            <polygon id="Fill-1" fill="#FFFFFF" mask="url(#mask-4)" points="0 599.76 1199.372 599.76 1199.372 0 0 0"></polygon>
                            <polyline id="Fill-3" fill="#BD242F" mask="url(#mask-4)" points="539.712 359.78 539.712 599.932 659.66 599.932 659.66 359.78 1199.372 359.78 1199.372 239.84 659.66 239.84 659.66 0 539.712 0 539.712 239.84 0 239.84 0 359.78 539.712 359.78"></polyline>
                            <polyline id="Fill-4" fill="#272E60" mask="url(#mask-4)" points="699.66 194.2 699.66 0 1087.98 0 699.66 194.2"></polyline>
                            <polyline id="Fill-5" fill="#272E60" mask="url(#mask-4)" points="699.66 405.732 699.66 599.932 1087.98 599.932 699.66 405.732"></polyline>
                            <polyline id="Fill-6" fill="#272E60" mask="url(#mask-4)" points="499.712 405.732 499.712 599.932 111.392 599.932 499.712 405.732"></polyline>
                        </g>
                        <polyline id="Fill-8" fill="#272E60" points="499.712 194.2 499.712 0 111.392 0 499.712 194.2"></polyline>
                        <polyline id="Fill-9" fill="#272E60" points="0.004 55.768 0.004 199.972 288.352 199.972 0.004 55.768"></polyline>
                        <polyline id="Fill-10" fill="#272E60" points="1199.372 55.768 1199.372 199.972 911.024 199.972 1199.372 55.768"></polyline>
                        <polyline id="Fill-11" fill="#272E60" points="1199.372 544.164 1199.372 399.96 911.024 399.96 1199.372 544.164"></polyline>
                        <polyline id="Fill-12" fill="#272E60" points="0 544.164 0 399.96 288.352 399.96 0 544.164"></polyline>
                        <g id="Group-18" stroke-width="1" fill="none">
                            <mask id="mask-6" fill="white">
                                <use xlink:href="#path-5"></use>
                            </mask>
                            <g id="Clip-14"></g>
                            <polyline id="Fill-13" fill="#BD242F" mask="url(#mask-6)" points="1199.372 0 1132.756 0 733.6 199.972 800.216 199.972 1200 0"></polyline>
                            <polyline id="Fill-15" fill="#BD242F" mask="url(#mask-6)" points="465.772 399.948 399.156 399.948 0 599.924 66.616 599.924 466.4 399.948"></polyline>
                            <polyline id="Fill-16" fill="#BD242F" mask="url(#mask-6)" points="333.068 200.128 399.684 200.128 0 0 0 33.54 333.068 200.128"></polyline>
                            <polyline id="Fill-17" fill="#BD242F" mask="url(#mask-6)" points="866.092 399.872 799.476 399.872 1199.16 600 1199.16 566.46 866.092 399.872"></polyline>
                        </g>
                    </g>
                </g>
            </g>
        </g>
    </g>
</svg>